<?xml version="1.0" encoding="UTF-8"?>
<svg version="1.1" xmlns="http://www.w3.org/2000/svg" width="1024" height="1024">
<path d="M0 0 C337.92 0 675.84 0 1024 0 C1024 337.92 1024 675.84 1024 1024 C686.08 1024 348.16 1024 0 1024 C0 686.08 0 348.16 0 0 Z " fill="#0B0D0E" transform="translate(0,0)"/>
<path d="M0 0 C1.3369267 -0.00302487 2.67385166 -0.00691603 4.0107736 -0.01159257 C7.66509125 -0.02183877 11.31931043 -0.01969937 14.97363603 -0.01541197 C18.92270668 -0.01293847 22.87175401 -0.02196684 26.82081604 -0.02944946 C34.55133873 -0.04218287 42.28182666 -0.04399171 50.01235808 -0.0416492 C56.30062584 -0.03986374 62.58888308 -0.04162059 68.87714958 -0.04587364 C69.77330301 -0.04646883 70.66945644 -0.04706402 71.59276603 -0.04767724 C73.41356552 -0.04888905 75.23436502 -0.05010319 77.05516451 -0.05131962 C94.12321903 -0.06219072 111.19125378 -0.06003518 128.2593094 -0.05393478 C143.84844825 -0.04877056 159.43752451 -0.06000873 175.02665097 -0.07903299 C191.05511496 -0.09844247 207.08354939 -0.10666166 223.1120252 -0.10290974 C232.10198776 -0.10100183 241.09189712 -0.10344484 250.08185005 -0.11762428 C257.73856072 -0.12957903 265.39518547 -0.13089761 273.05189741 -0.11883412 C276.95263623 -0.11297294 280.85321823 -0.11176855 284.7539463 -0.12383652 C323.07449774 -0.23425462 323.07449774 -0.23425462 336.12461853 7.01069641 C336.78727722 7.36285217 337.44993591 7.71500793 338.13267517 8.07783508 C353.18228774 16.27682122 364.56180318 29.28911684 369.47696877 45.93575382 C371.68739907 54.68162116 372.1157794 63.05825571 372.07530212 72.01826477 C372.07937818 73.55410126 372.0847258 75.08993482 372.0912323 76.62576294 C372.10479016 80.75810732 372.09965518 84.89022444 372.09009504 89.02257228 C372.08243671 93.37218075 372.08956116 97.72177129 372.09425354 102.07138062 C372.09969385 109.37337188 372.09256559 116.67527179 372.07823181 123.97724915 C372.06191476 132.38597154 372.06719391 140.79447555 372.08371103 149.20319265 C372.09738262 156.45713558 372.0992178 163.71101326 372.09139502 170.96496493 C372.08674874 175.28230235 372.08600868 179.59953759 372.09600449 183.91686821 C372.1047548 187.97920621 372.09850732 192.04126635 372.08132172 196.10357475 C372.0773992 197.58286582 372.07841691 199.06218082 372.08510971 200.54146194 C372.15895572 218.54110594 368.72688782 233.889543 357.68711853 248.26069641 C356.99489197 249.20235657 356.99489197 249.20235657 356.28868103 250.16304016 C346.99369917 262.01011241 332.27152077 268.82122941 317.68711853 271.26069641 C311.54216261 271.73959376 305.36640889 271.53922438 299.20982361 271.44258118 C297.37047621 271.42533289 295.53111416 271.40959229 293.69174194 271.39523315 C289.75323736 271.36220766 285.81495925 271.3204334 281.87661171 271.27223396 C275.64376272 271.19784279 269.41093329 271.15453187 263.17776489 271.11737061 C245.46112344 271.00813695 227.74496597 270.8769373 210.02915955 270.6710968 C200.22752647 270.55746823 190.4262933 270.47965942 180.62406653 270.44182247 C175.4448729 270.42024385 170.26731376 270.37997666 165.0887394 270.29509163 C160.22174963 270.21535248 155.35665965 270.18227965 150.48903847 270.18449974 C148.7075459 270.17698069 146.92602734 270.15235907 145.14504623 270.10901642 C135.41832863 269.68352691 135.41832863 269.68352691 126.72550011 273.4039135 C124.45125362 275.91278077 122.58642152 278.46342343 120.68711853 281.26069641 C119.27830596 282.77228626 117.84302163 284.26010073 116.37071228 285.70991516 C115.66881775 286.41309875 114.96692322 287.11628235 114.24375916 287.84077454 C113.54444275 288.53622375 112.84512634 289.23167297 112.12461853 289.94819641 C111.42143494 290.65524719 110.71825134 291.36229797 109.99375916 292.09077454 C106.69173071 295.3867275 103.35911345 298.58768409 99.81602478 301.62397766 C94.66903098 306.06178234 89.95553738 310.92386409 85.18711853 315.76069641 C79.81881702 321.20601803 74.45790642 326.54465933 68.64805603 331.51802063 C64.09902811 335.56071999 59.9309974 340.02210189 55.69102478 344.38374329 C54.97301697 345.11270813 54.25500916 345.84167297 53.51524353 346.59272766 C52.55473083 347.57849792 52.55473083 347.57849792 51.57481384 348.58418274 C46.5406223 353.0551855 41.53992348 352.68092427 35.04258728 352.57319641 C29.34198128 352.04229015 26.59169392 349.37569118 22.93711853 345.32319641 C19.30811512 340.38371954 18.43671646 336.74083877 18.46006775 330.63447571 C18.4597757 329.99000992 18.45948364 329.34554413 18.45918274 328.68154907 C18.46056848 326.5658642 18.47609347 324.45053799 18.49180603 322.33491516 C18.49553886 320.86232699 18.49838456 319.38973632 18.50038147 317.91714478 C18.5079967 314.05211969 18.5276269 310.18724628 18.54978943 306.32228088 C18.57029345 302.37403922 18.57939291 298.42577291 18.58946228 294.47749329 C18.61087493 286.73849205 18.6449852 278.99961553 18.68711853 271.26069641 C17.75029236 271.27640686 16.81346619 271.29211731 15.84825134 271.30830383 C12.31450167 271.35996302 8.78116326 271.39730063 5.24717712 271.42549133 C3.72855732 271.44041753 2.20997936 271.46076601 0.69151306 271.48701477 C-16.68077783 271.77941967 -32.26058906 268.67538125 -45.75038147 256.82319641 C-47.29122314 255.32263818 -48.81377104 253.80294671 -50.31288147 252.26069641 C-50.94710022 251.64710266 -51.58131897 251.03350891 -52.23475647 250.40132141 C-67.10490491 235.00479603 -68.45159509 214.51246684 -68.48988342 194.31269836 C-68.49616413 192.83951666 -68.50281228 191.36633649 -68.50979614 189.89315796 C-68.53064218 185.09510867 -68.54117786 180.29705975 -68.55116272 175.49897766 C-68.5552171 173.83545097 -68.55933421 172.17192444 -68.5635128 170.50839806 C-68.58251909 162.69051526 -68.59676141 154.87264165 -68.60512477 147.05474025 C-68.61489024 138.07892886 -68.64121098 129.10336451 -68.68162566 120.12764007 C-68.71192437 113.15567404 -68.72660645 106.18377834 -68.72990578 99.21174783 C-68.73223983 95.06303284 -68.7409837 90.91458312 -68.76636696 86.76593971 C-68.78989675 82.85790281 -68.79378278 78.95030131 -68.78360558 75.04221153 C-68.78311615 73.62179477 -68.78925742 72.20135465 -68.80316162 70.78100586 C-68.97950841 51.67173106 -64.00549623 33.40445861 -50.56581116 19.31977844 C-36.44582337 5.22372284 -19.49486527 -0.06002581 0 0 Z " fill="#0C0E0F" transform="translate(357.31288146972656,151.7393035888672)"/>
<path d="M0 0 C15.93354018 -0.09349416 31.86700615 -0.16400399 47.80075264 -0.20724869 C55.19929303 -0.22786282 62.59766285 -0.2559612 69.99609375 -0.30175781 C76.44553552 -0.34166106 82.89485375 -0.36744117 89.34441555 -0.37635398 C92.75860635 -0.38156292 96.17244375 -0.39378114 99.58652115 -0.42292023 C103.40050536 -0.45192063 107.21375545 -0.45595721 111.02783203 -0.45410156 C112.15640121 -0.46848267 113.2849704 -0.48286377 114.44773865 -0.49768066 C120.61253718 -0.46518596 124.34318362 -0.1885255 129 4 C131.0546875 6.70703125 131.0546875 6.70703125 132.875 9.8125 C133.20814209 10.37364502 133.54128418 10.93479004 133.88452148 11.51293945 C136.41595853 15.83092411 138.74078254 20.25446544 141.0625 24.6875 C151.32864686 44.25152351 164.40303405 57.65957346 185.52459717 64.86073303 C197.49913361 68.17419497 209.9478177 67.45287096 222.265625 67.43359375 C224.82948951 67.438163 227.39335281 67.44347076 229.95721436 67.44947815 C235.31642239 67.45838241 240.67546671 67.45625571 246.03466797 67.44604492 C252.18376898 67.43458625 258.33243266 67.44861768 264.48147607 67.4754414 C270.45034117 67.50048098 276.4190734 67.50274012 282.38799286 67.49632454 C284.90267411 67.49617242 287.41736423 67.50212516 289.93201447 67.51461601 C315.22847348 67.62256622 334.86520037 64.5688777 354.22265625 46.98046875 C360.64074249 40.30719021 364.67260633 32.09415334 369 24 C370.30938919 21.56332866 371.62328744 19.12944028 372.94775391 16.70092773 C373.79456603 15.14780382 374.63325419 13.59021325 375.46240234 12.02758789 C378.30325268 6.80915892 381.09337867 1.96887378 387 0 C388.66217053 -0.08992298 390.32775507 -0.12196531 391.99235535 -0.12025452 C393.02300613 -0.12162918 394.05365692 -0.12300385 395.11553955 -0.12442017 C396.81054596 -0.11902725 396.81054596 -0.11902725 398.53979492 -0.11352539 C400.32535545 -0.11374443 400.32535545 -0.11374443 402.14698792 -0.1139679 C405.41118607 -0.11339022 408.67534147 -0.10837168 411.93953109 -0.10139394 C415.35082422 -0.09514664 418.76211817 -0.09455551 422.17341614 -0.09336853 C428.63319678 -0.09025928 435.09296052 -0.08205136 441.55273372 -0.07201904 C448.90695364 -0.06084531 456.26117437 -0.05534427 463.61540067 -0.05032361 C478.74360987 -0.03986842 493.87180325 -0.02227682 509 0 C509.0696385 13.25679109 509.12288165 26.51353835 509.15543652 39.77047539 C509.17106449 45.92680212 509.19225051 52.08300332 509.22631836 58.23925781 C509.25901386 64.18501131 509.27687458 70.13064437 509.28463173 76.07648087 C509.29015694 78.34017964 509.30094621 80.60387214 509.31719017 82.86751938 C509.33909964 86.04837832 509.34196125 89.22874521 509.34057617 92.40966797 C509.35675491 93.80042793 509.35675491 93.80042793 509.3732605 95.21928406 C509.32042039 106.49977593 506.0343916 114.46652338 498.44140625 122.6875 C488.64659016 132.08300704 476.12320997 131.57569224 463.47093201 131.50793457 C461.59177625 131.51254821 459.71262411 131.51890423 457.83347946 131.52684355 C452.68982338 131.54349616 447.54646528 131.53530897 442.40280831 131.52289867 C436.84786434 131.51383393 431.29297097 131.52782494 425.73803711 131.53881836 C414.86414526 131.55659257 403.99036393 131.55276855 393.11646777 131.5411678 C384.27861011 131.53212991 375.4407834 131.53091102 366.60292244 131.53526306 C364.71530482 131.53618246 364.71530482 131.53618246 362.78955351 131.53712043 C360.23303269 131.53839935 357.67651188 131.5396962 355.11999107 131.5410108 C331.83824483 131.5520883 308.55656326 131.54060597 285.27483072 131.51964041 C264.03222794 131.50065657 242.78972108 131.50235939 221.54711914 131.52148438 C197.66590138 131.54291321 173.78473649 131.55131695 149.90350586 131.53903532 C147.35675785 131.53776114 144.81000983 131.53650365 142.2632618 131.53526306 C141.01024361 131.53464596 139.75722542 131.53402886 138.46623699 131.53339306 C129.63922075 131.52994036 120.81223855 131.53576674 111.98522758 131.54518127 C101.22781289 131.55640263 90.47051493 131.55335812 79.7131136 131.5320583 C74.22528585 131.52155019 68.73765271 131.5174222 63.24982643 131.53065491 C58.22447405 131.54258917 53.19949637 131.53599894 48.17417789 131.5147447 C46.35805921 131.51028309 44.54190877 131.51253497 42.72581058 131.52224785 C28.93393173 131.5903415 19.3973439 130.15576159 9.12890625 120.2890625 C1.44860042 112.03097219 -0.47057534 101.54286955 -0.34057617 90.59326172 C-0.34101425 89.60669083 -0.34145233 88.62011993 -0.34190369 87.60365295 C-0.33983223 84.37878859 -0.31657917 81.15445979 -0.29296875 77.9296875 C-0.28736695 75.6795378 -0.28309961 73.42938442 -0.28010559 71.17922974 C-0.26870285 65.28391247 -0.23927519 59.38882024 -0.20599365 53.49359131 C-0.17519393 47.46711266 -0.16157915 41.44059732 -0.14648438 35.4140625 C-0.11440097 23.60927664 -0.06326024 11.8046571 0 0 Z " fill="#0C0E0F" transform="translate(257,679)"/>
<path d="M0 0 C1.787376 -0.00269909 3.57475057 -0.00658497 5.36212158 -0.01159668 C9.09067903 -0.01746605 12.81885093 -0.00900792 16.54736328 0.00976562 C21.31778293 0.03262038 26.08730547 0.01937495 30.85769272 -0.00452423 C34.54153173 -0.01899517 38.22515874 -0.01437145 41.90900421 -0.00401306 C43.66801308 -0.00135279 45.42704145 -0.00459083 47.18602753 -0.01393127 C49.64374183 -0.024126 52.10001024 -0.00855952 54.55761719 0.01367188 C55.2777449 0.00557495 55.99787262 -0.00252197 56.73982239 -0.01086426 C61.78461492 0.07339178 64.61848083 1.38607924 68.515625 4.53125 C71.93659262 8.49237041 73.13509684 11.45533883 72.83203125 16.578125 C72.09234354 21.14409854 70.42644221 23.78901149 66.87286377 26.68487549 C63.02597592 28.80054141 60.18125509 29.011319 55.92480469 28.82324219 C54.82104744 28.80019768 54.82104744 28.80019768 53.69499207 28.77668762 C52.10540515 28.74263222 50.51597938 28.70023073 48.92681122 28.65032196 C46.402897 28.57712142 43.88083426 28.53954033 41.35601807 28.51324463 C34.18164702 28.43772294 27.00977946 28.34311346 19.83837891 28.11669922 C15.44089467 27.98045739 11.04828896 27.92351421 6.64878082 27.91678619 C4.98182872 27.89950678 3.31489697 27.85331991 1.64962006 27.77663422 C-6.12383865 27.38564747 -6.12383865 27.38564747 -13.484375 29.53125 C-17.65298608 33.43465736 -20.13326551 38.50103509 -22.54417419 43.60524368 C-23.83592783 46.25140783 -25.4081442 48.6796063 -27.03125 51.1328125 C-27.55847656 51.96039062 -28.08570313 52.78796875 -28.62890625 53.640625 C-29.15871094 54.47078125 -29.68851562 55.3009375 -30.234375 56.15625 C-31.43751816 58.04425926 -32.64064262 59.93228044 -33.84375 61.8203125 C-34.44638672 62.76551758 -35.04902344 63.71072266 -35.66992188 64.68457031 C-38.61075764 69.29842191 -41.54739848 73.91494122 -44.484375 78.53125 C-45.64190599 80.35027384 -46.79945814 82.16928422 -47.95703125 83.98828125 C-48.82158936 85.34687256 -48.82158936 85.34687256 -49.70361328 86.73291016 C-61.09399414 104.63208008 -61.09399414 104.63208008 -72.484375 122.53125 C-71.88214237 122.53179477 -71.27990974 122.53233953 -70.65942764 122.53290081 C-55.95917398 122.54791299 -41.25917613 122.59053824 -26.5591011 122.66334057 C-19.45001087 122.69789279 -12.34111257 122.72333318 -5.23193359 122.72680664 C0.96941636 122.72986023 7.17042364 122.75053633 13.3716414 122.79177457 C16.65078059 122.81298139 19.92933122 122.82313979 23.2085495 122.81740379 C26.88272015 122.81247588 30.55549374 122.8386911 34.22949219 122.87182617 C35.83388405 122.85888771 35.83388405 122.85888771 37.47068787 122.84568787 C48.76896866 123.01539266 58.14744218 127.06466894 66.2265625 134.92578125 C71.7543392 141.2176363 75.49100361 148.59110308 79.3984375 155.94140625 C80.17018311 157.38350464 80.17018311 157.38350464 80.95751953 158.85473633 C81.96927219 160.7550621 82.96843054 162.6621668 83.95263672 164.5769043 C88.36774006 172.92812098 93.62984168 180.88994825 102.453125 184.96875 C103.39027344 185.42121094 104.32742188 185.87367188 105.29296875 186.33984375 C112.9301397 189.16328271 120.17888382 189.82418084 128.27685547 189.79003906 C129.31388611 189.7935437 130.35091675 189.79704834 131.41937256 189.80065918 C134.82392204 189.80941164 138.22826115 189.80364937 141.6328125 189.796875 C144.01498453 189.79822372 146.3971563 189.80016597 148.77932739 189.80267334 C153.76388173 189.805616 158.7483642 189.80135528 163.73291016 189.79199219 C170.10004349 189.78061069 176.46700794 189.78715444 182.83413506 189.79913712 C187.75169123 189.80638945 192.66920787 189.8040521 197.58676529 189.79888153 C199.93335109 189.79755372 202.27994055 189.7991621 204.62652206 189.80384064 C207.91631221 189.80896007 211.20583506 189.80111938 214.49560547 189.79003906 C215.92989395 189.79611176 215.92989395 189.79611176 217.39315796 189.80230713 C229.2390174 189.7289614 239.73674014 188.09842343 248.5246582 179.58496094 C253.36327532 174.20337838 257.06209018 168.68912134 260.515625 162.34375 C261.02834961 161.42827393 261.54107422 160.51279785 262.06933594 159.56958008 C264.34068905 155.50987502 266.57282402 151.43014283 268.78125 147.3359375 C275.28400071 135.38789566 282.01024194 127.95306117 295.36280441 123.98188114 C297.79023504 123.47376828 299.99595065 123.40835673 302.47637939 123.41099548 C303.47474823 123.40962082 304.47311707 123.40824615 305.5017395 123.40682983 C307.13524857 123.41222275 307.13524857 123.41222275 308.80175781 123.41772461 C310.52901596 123.41750557 310.52901596 123.41750557 312.29116821 123.4172821 C316.10038125 123.41797922 319.9095455 123.4257623 323.71875 123.43359375 C326.35862196 123.43545864 328.99849427 123.43688221 331.6383667 123.43788147 C337.87853534 123.44098853 344.11868645 123.44919349 350.35884738 123.45923096 C357.46400203 123.47041151 364.56915753 123.47590744 371.67431879 123.48092639 C386.28809657 123.49137662 400.90186054 123.50896397 415.515625 123.53125 C413.62270165 120.35372589 411.72575263 117.17862281 409.828125 114.00390625 C409.29767578 113.11336548 408.76722656 112.22282471 408.22070312 111.30529785 C405.10908415 106.10455126 401.91543255 100.9859254 398.515625 95.96875 C398.09137238 95.34173187 397.66711975 94.71471375 397.23001099 94.06869507 C396.84731049 93.50333038 396.46460999 92.9379657 396.0703125 92.35546875 C391.03080076 84.870948 386.31060769 77.17349311 381.515625 69.53125 C379.53878144 66.38394951 377.55946536 63.23822143 375.578125 60.09375 C375.09456543 59.32522705 374.61100586 58.5567041 374.11279297 57.76489258 C371.40289757 53.47177268 368.65685258 49.20527414 365.87109375 44.9609375 C364.96895142 43.5850647 364.96895142 43.5850647 364.04858398 42.18139648 C362.879101 40.40211051 361.70556808 38.62547846 360.52758789 36.85180664 C360.00285889 36.05379639 359.47812988 35.25578613 358.9375 34.43359375 C358.23512207 33.37386353 358.23512207 33.37386353 357.51855469 32.29272461 C356.515625 30.53125 356.515625 30.53125 356.515625 28.53125 C355.08861771 28.54457367 355.08861771 28.54457367 353.63278198 28.5581665 C344.65787046 28.6393292 335.68303361 28.69925221 326.70783806 28.73849869 C322.09380649 28.75935426 317.48007171 28.78763462 312.86621094 28.83300781 C308.41174537 28.87653828 303.95756488 28.90040238 299.50290298 28.91075897 C297.80525349 28.91813745 296.10761921 28.93254606 294.4100914 28.95417023 C292.02809957 28.9833008 289.64727864 28.9872021 287.26513672 28.98535156 C286.56670151 28.99973267 285.8682663 29.01411377 285.14866638 29.02893066 C280.16059557 28.98712894 277.35368414 27.65595411 273.515625 24.53125 C270.46042868 20.0502954 269.57291133 15.82739423 270.515625 10.53125 C272.951731 5.65903799 275.791773 3.16004884 280.515625 0.53125 C283.2760795 0.15140737 285.63090667 -0.01766575 288.38183594 0.01367188 C289.52948425 0.00315796 289.52948425 0.00315796 290.70031738 -0.00756836 C293.21725309 -0.02510095 295.73305379 -0.01353847 298.25 0 C300.01109023 -0.0026974 301.772179 -0.00658189 303.53326416 -0.01159668 C307.22186481 -0.01748625 310.91007738 -0.00895052 314.59863281 0.00976562 C319.30376192 0.03248788 324.00797485 0.01947171 328.71306992 -0.00452423 C332.35075644 -0.01905443 335.98822983 -0.01434219 339.62592316 -0.00401306 C341.35929729 -0.00136217 343.09269136 -0.00455729 344.82604218 -0.01393127 C356.82789982 -0.06457402 367.31426648 0.53126484 376.46875 9.19140625 C381.12066533 14.50914916 384.76624388 20.56423059 388.515625 26.53125 C389.42924721 27.97163354 390.34331746 29.41173297 391.2578125 30.8515625 C393.23881299 33.97738277 395.21107467 37.10855332 397.1796875 40.2421875 C400.92450312 46.19356719 404.72004943 52.11216254 408.515625 58.03125 C413.68462938 66.09528575 418.82935764 74.17341061 423.9309082 82.28027344 C427.45449223 87.87190602 431.01842327 93.43677026 434.59350586 98.99560547 C437.31257919 103.23044968 440.01517415 107.47568837 442.71679688 111.72167969 C444.29314405 114.1837594 445.89175705 116.62903084 447.5 119.0703125 C448.31873903 120.34829861 449.13654704 121.62688198 449.953125 122.90625 C450.63246094 123.94523438 451.31179688 124.98421875 452.01171875 126.0546875 C455.4200449 133.93367521 454.66962496 143.41120247 454.69262695 151.88330078 C454.70248375 153.49797997 454.70248375 153.49797997 454.71253967 155.14527893 C454.73208846 158.6723744 454.74389323 162.1994277 454.75390625 165.7265625 C454.75798178 166.94193569 454.7620573 168.15730888 454.76625633 169.40951157 C454.78703769 175.84169082 454.80137405 182.27384924 454.81079102 188.70605469 C454.82184485 195.30580188 454.85625658 201.905211 454.89596272 208.50483894 C454.92225383 213.61992977 454.93049386 218.73494141 454.93407249 223.85009384 C454.93890531 226.28105836 454.95042323 228.71202014 454.96911049 231.14291763 C455.13357088 253.95149921 453.19132597 274.07245596 436.77075195 291.41943359 C425.97457761 302.31270572 411.11437471 309.6734135 395.54883364 309.80097538 C394.47979102 309.79480943 394.47979102 309.79480943 393.38915157 309.78851891 C392.21706852 309.79377802 392.21706852 309.79377802 391.02130702 309.79914337 C388.41118174 309.808424 385.80128121 309.8035427 383.19114685 309.79867554 C381.29752279 309.80241349 379.40390027 309.80701559 377.51028019 309.81240618 C372.31257252 309.8246339 367.11492923 309.82437597 361.91721046 309.82201743 C356.30895807 309.8216092 350.7007263 309.83264911 345.09248352 309.84213257 C334.10624379 309.85874298 323.12002551 309.86424216 312.13377427 309.86535732 C303.20150033 309.86630791 294.26923345 309.87041872 285.33696175 309.87675858 C264.12667442 309.89150627 242.9163922 309.90380826 221.70609951 309.90276146 C220.68893554 309.90271472 220.68893554 309.90271472 219.6512228 309.90266704 C216.21445618 309.90250083 212.77768956 309.90230275 209.34092294 309.90209763 C208.65839738 309.90205774 207.97587181 309.90201785 207.27266365 309.90197675 C205.89242983 309.90189587 204.51219601 309.90181228 203.13196218 309.90172596 C181.66826994 309.90050105 160.20464094 309.91550347 138.7409668 309.94287109 C114.61288512 309.97362351 90.48485586 309.99077631 66.35674912 309.98894465 C53.58686294 309.98828112 40.81704808 309.99375708 28.04717827 310.01530075 C17.17273257 310.03352922 6.2983905 310.03784624 -4.57606388 310.0242819 C-10.12120495 310.01776036 -15.66614732 310.01760577 -21.21126938 310.0349884 C-26.29496819 310.05076019 -31.37831144 310.0478135 -36.46200179 310.03042014 C-38.29378215 310.02735926 -40.12558932 310.03094795 -41.95733804 310.04214029 C-62.35712925 310.15845689 -79.83233326 305.83488609 -95.046875 291.1953125 C-106.983277 278.14943724 -111.81938188 262.13959133 -111.72729492 244.8203125 C-111.72919327 243.68253357 -111.73109161 242.54475464 -111.73304749 241.37249756 C-111.73673419 237.63367693 -111.72608002 233.89505319 -111.71484375 230.15625 C-111.71365053 227.54508487 -111.71319909 224.9339193 -111.7134552 222.32275391 C-111.71252148 216.85902491 -111.70387763 211.39535177 -111.69018555 205.93164062 C-111.67446321 199.63492491 -111.66918765 193.33827027 -111.6699211 187.04153633 C-111.67053372 180.95840652 -111.66529728 174.87529957 -111.65712929 168.79217529 C-111.65395557 166.21506875 -111.65197825 163.63796044 -111.65123558 161.06085205 C-111.64905824 157.4546 -111.64028393 153.84842325 -111.62963867 150.2421875 C-111.63009186 149.18529724 -111.63054504 148.12840698 -111.63101196 147.03948975 C-111.55916264 130.323961 -111.55916264 130.323961 -108.21875 124.98046875 C-107.74775879 124.21041504 -107.27676758 123.44036133 -106.79150391 122.64697266 C-106.27765137 121.84565918 -105.76379883 121.0443457 -105.234375 120.21875 C-104.4307251 118.92396729 -104.4307251 118.92396729 -103.61083984 117.60302734 C-101.92257271 114.89875977 -100.20857036 112.21273197 -98.484375 109.53125 C-97.95166992 108.70093262 -97.41896484 107.87061523 -96.87011719 107.01513672 C-94.21034652 102.88255295 -91.5277423 98.76546343 -88.83203125 94.65625 C-85.35697796 89.35238234 -81.94593123 84.00905346 -78.546875 78.65625 C-77.96711914 77.74335205 -77.38736328 76.8304541 -76.79003906 75.88989258 C-75.61288482 74.03563009 -74.43596503 72.18121874 -73.25927734 70.32666016 C-71.47864388 67.52222368 -69.69496794 64.71974771 -67.91015625 61.91796875 C-67.32258545 60.99556396 -66.73501465 60.07315918 -66.12963867 59.12280273 C-64.95402344 57.2772603 -63.77840497 55.43171992 -62.6027832 53.58618164 C-59.30127556 48.39915971 -56.0161382 43.20229737 -52.74536133 37.99584961 C-50.33679179 34.16681169 -47.91473072 30.34649166 -45.484375 26.53125 C-45.03046387 25.81759277 -44.57655273 25.10393555 -44.10888672 24.36865234 C-31.82279579 5.15354456 -22.7156253 -0.12126689 0 0 Z M-83.484375 150.53125 C-83.57736247 163.47543318 -83.64828553 176.4195359 -83.69162369 189.36398602 C-83.7124317 195.37567189 -83.7406249 201.38712798 -83.78613281 207.39868164 C-83.82983307 213.20829822 -83.85356305 219.0176948 -83.86388397 224.82746315 C-83.8712321 227.03566764 -83.88558044 229.24386111 -83.90729523 231.45197105 C-84.61197592 252.22672157 -84.61197592 252.22672157 -75.234375 270.03125 C-68.29329081 277.05211676 -60.96695265 281.71653248 -50.82567075 281.80097538 C-49.75906459 281.79480943 -49.75906459 281.79480943 -48.67091084 281.78851891 C-47.51315454 281.79377802 -47.51315454 281.79377802 -46.33200923 281.79914337 C-43.74237054 281.80845672 -41.15295676 281.80353422 -38.56330872 281.79867554 C-36.68918397 281.80241184 -34.81506079 281.80701328 -32.94094008 281.81240618 C-27.78799901 281.82465425 -22.63512277 281.82437358 -17.48217046 281.82201743 C-11.92576619 281.82160972 -6.36938284 281.83264411 -0.81298828 281.84213257 C10.0745926 281.85875381 20.96215183 281.86424264 31.84974434 281.86535732 C40.69962531 281.86630733 49.54949912 281.87041527 58.39937782 281.87675858 C79.40371104 281.89150752 100.40804038 281.90380796 121.41237926 281.90276146 C122.08410718 281.9027303 122.7558351 281.90269914 123.44791841 281.90266704 C126.85247579 281.90250083 130.25703316 281.90230275 133.66159054 281.90209763 C134.67581605 281.90203779 134.67581605 281.90203779 135.71053096 281.90197675 C137.0778724 281.90189587 138.44521385 281.90181228 139.81255529 281.90172596 C161.08120028 281.90050074 182.34978147 281.9155083 203.6184082 281.94287109 C227.51717059 281.97360501 251.41589141 281.99077743 275.31467897 281.98894465 C287.9670958 281.98828054 300.6194407 281.99378216 313.27184105 282.01530075 C324.04507399 282.03350576 334.81820239 282.03786547 345.59144404 282.0242819 C351.08746985 282.01774868 356.58329507 282.01764801 362.07930183 282.0349884 C367.11352804 282.05070835 372.14739444 282.04786627 377.18161181 282.03042014 C378.99992192 282.02734788 380.81825881 282.03099112 382.63653734 282.04214029 C396.3651393 282.12072486 406.99919105 281.00912596 417.34765625 271.0390625 C424.59750674 262.65274896 425.66967995 254.16322243 425.62915039 243.50854492 C425.62936943 242.00052307 425.62936943 242.00052307 425.6295929 240.46203613 C425.62889728 237.14524158 425.62112125 233.82850347 425.61328125 230.51171875 C425.61141583 228.20957978 425.60999251 225.90744041 425.60899353 223.6053009 C425.60517816 217.5505361 425.5953562 211.49579535 425.58428955 205.44104004 C425.57405439 199.26082688 425.5694914 193.08060982 425.56445312 186.90039062 C425.55373308 174.77733319 425.53666839 162.6542936 425.515625 150.53125 C409.69517881 150.46115502 393.87477457 150.40825947 378.05421162 150.37581348 C370.70837016 150.36034751 363.36262521 150.33926324 356.0168457 150.30493164 C349.61392581 150.27502091 343.21107582 150.25567303 336.808088 150.24898452 C333.41802993 150.24507506 330.02817183 150.23589317 326.63817787 150.21405983 C322.8528207 150.19233544 319.06788002 150.18928107 315.2824707 150.19067383 C313.59825012 150.17449509 313.59825012 150.17449509 311.88000488 150.1579895 C310.84660477 150.16211349 309.81320465 150.16623749 308.74848938 150.17048645 C307.85342839 150.16772107 306.9583674 150.16495569 306.03618336 150.16210651 C302.00112928 150.75305253 299.35582239 152.65906113 296.56640625 155.5546875 C293.57638614 159.89448812 291.17138837 164.50507612 288.703125 169.15625 C278.26514538 188.49855528 267.01469729 206.44217201 245.203125 214.03125 C243.32461408 214.59283772 241.42479859 215.08488667 239.515625 215.53125 C238.48644801 215.77750091 238.48644801 215.77750091 237.43647957 216.02872658 C230.86552544 217.48597043 224.60991025 217.82767026 217.89404297 217.82177734 C216.21865196 217.83185318 216.21865196 217.83185318 214.50941467 217.84213257 C210.8421678 217.86102203 207.1751049 217.86503248 203.5078125 217.8671875 C200.93726529 217.87362259 198.3667188 217.88035148 195.7961731 217.88735962 C190.41487621 217.89931046 185.03365125 217.90312896 179.65234375 217.90185547 C173.47319794 217.90065696 167.29440302 217.92171426 161.11534584 217.9533428 C155.12671913 217.98288055 149.13827953 217.9898252 143.14957047 217.98863602 C140.62289118 217.99097941 138.09620866 217.99973082 135.56957626 218.01530075 C112.79567523 218.14248468 91.89111496 216.26362192 74.5703125 199.78417969 C65.28458231 190.50474064 59.36635187 178.66924872 53.18359375 167.21875 C52.79091309 166.50025879 52.39823242 165.78176758 51.99365234 165.04150391 C51.23578677 163.6530891 50.486885 162.25973062 49.74853516 160.86083984 C47.17746196 156.16402945 44.41731047 152.98209274 39.515625 150.53125 C37.88107888 150.43843765 36.24273848 150.4093283 34.6055603 150.41099548 C33.04902489 150.40893349 33.04902489 150.40893349 31.46104431 150.40682983 C30.31809402 150.41042511 29.17514374 150.41402039 27.99755859 150.41772461 C26.79757736 150.41757858 25.59759613 150.41743256 24.36125183 150.4172821 C21.06599639 150.41786043 17.77080318 150.42288435 14.47555876 150.42985606 C11.03356324 150.43609673 7.59156695 150.43669396 4.14956665 150.43788147 C-2.37045435 150.44099268 -8.89045864 150.44920324 -15.41047227 150.45923096 C-22.83238238 150.47039862 -30.25429327 150.47590419 -37.67620969 150.48092639 C-52.94560782 150.49138602 -68.21498925 150.5089814 -83.484375 150.53125 Z " fill="#EEE9DC" transform="translate(340.484375,528.46875)"/>
<path d="M0 0 C1.3369267 -0.00302487 2.67385166 -0.00691603 4.0107736 -0.01159257 C7.66509125 -0.02183877 11.31931043 -0.01969937 14.97363603 -0.01541197 C18.92270668 -0.01293847 22.87175401 -0.02196684 26.82081604 -0.02944946 C34.55133873 -0.04218287 42.28182666 -0.04399171 50.01235808 -0.0416492 C56.30062584 -0.03986374 62.58888308 -0.04162059 68.87714958 -0.04587364 C69.77330301 -0.04646883 70.66945644 -0.04706402 71.59276603 -0.04767724 C73.41356552 -0.04888905 75.23436502 -0.05010319 77.05516451 -0.05131962 C94.12321903 -0.06219072 111.19125378 -0.06003518 128.2593094 -0.05393478 C143.84844825 -0.04877056 159.43752451 -0.06000873 175.02665097 -0.07903299 C191.05511496 -0.09844247 207.08354939 -0.10666166 223.1120252 -0.10290974 C232.10198776 -0.10100183 241.09189712 -0.10344484 250.08185005 -0.11762428 C257.73856072 -0.12957903 265.39518547 -0.13089761 273.05189741 -0.11883412 C276.95263623 -0.11297294 280.85321823 -0.11176855 284.7539463 -0.12383652 C323.07449774 -0.23425462 323.07449774 -0.23425462 336.12461853 7.01069641 C336.78727722 7.36285217 337.44993591 7.71500793 338.13267517 8.07783508 C353.18228774 16.27682122 364.56180318 29.28911684 369.47696877 45.93575382 C371.68739907 54.68162116 372.1157794 63.05825571 372.07530212 72.01826477 C372.07937818 73.55410126 372.0847258 75.08993482 372.0912323 76.62576294 C372.10479016 80.75810732 372.09965518 84.89022444 372.09009504 89.02257228 C372.08243671 93.37218075 372.08956116 97.72177129 372.09425354 102.07138062 C372.09969385 109.37337188 372.09256559 116.67527179 372.07823181 123.97724915 C372.06191476 132.38597154 372.06719391 140.79447555 372.08371103 149.20319265 C372.09738262 156.45713558 372.0992178 163.71101326 372.09139502 170.96496493 C372.08674874 175.28230235 372.08600868 179.59953759 372.09600449 183.91686821 C372.1047548 187.97920621 372.09850732 192.04126635 372.08132172 196.10357475 C372.0773992 197.58286582 372.07841691 199.06218082 372.08510971 200.54146194 C372.15895572 218.54110594 368.72688782 233.889543 357.68711853 248.26069641 C356.99489197 249.20235657 356.99489197 249.20235657 356.28868103 250.16304016 C346.99369917 262.01011241 332.27152077 268.82122941 317.68711853 271.26069641 C311.54216261 271.73959376 305.36640889 271.53922438 299.20982361 271.44258118 C297.37047621 271.42533289 295.53111416 271.40959229 293.69174194 271.39523315 C289.75323736 271.36220766 285.81495925 271.3204334 281.87661171 271.27223396 C275.64376272 271.19784279 269.41093329 271.15453187 263.17776489 271.11737061 C245.46112344 271.00813695 227.74496597 270.8769373 210.02915955 270.6710968 C200.22752647 270.55746823 190.4262933 270.47965942 180.62406653 270.44182247 C175.4448729 270.42024385 170.26731376 270.37997666 165.0887394 270.29509163 C160.22174963 270.21535248 155.35665965 270.18227965 150.48903847 270.18449974 C148.7075459 270.17698069 146.92602734 270.15235907 145.14504623 270.10901642 C135.41832863 269.68352691 135.41832863 269.68352691 126.72550011 273.4039135 C124.45125362 275.91278077 122.58642152 278.46342343 120.68711853 281.26069641 C119.27830596 282.77228626 117.84302163 284.26010073 116.37071228 285.70991516 C115.66881775 286.41309875 114.96692322 287.11628235 114.24375916 287.84077454 C113.54444275 288.53622375 112.84512634 289.23167297 112.12461853 289.94819641 C111.42143494 290.65524719 110.71825134 291.36229797 109.99375916 292.09077454 C106.69173071 295.3867275 103.35911345 298.58768409 99.81602478 301.62397766 C94.66903098 306.06178234 89.95553738 310.92386409 85.18711853 315.76069641 C79.81881702 321.20601803 74.45790642 326.54465933 68.64805603 331.51802063 C64.09902811 335.56071999 59.9309974 340.02210189 55.69102478 344.38374329 C54.97301697 345.11270813 54.25500916 345.84167297 53.51524353 346.59272766 C52.55473083 347.57849792 52.55473083 347.57849792 51.57481384 348.58418274 C46.5406223 353.0551855 41.53992348 352.68092427 35.04258728 352.57319641 C29.34198128 352.04229015 26.59169392 349.37569118 22.93711853 345.32319641 C19.30811512 340.38371954 18.43671646 336.74083877 18.46006775 330.63447571 C18.4597757 329.99000992 18.45948364 329.34554413 18.45918274 328.68154907 C18.46056848 326.5658642 18.47609347 324.45053799 18.49180603 322.33491516 C18.49553886 320.86232699 18.49838456 319.38973632 18.50038147 317.91714478 C18.5079967 314.05211969 18.5276269 310.18724628 18.54978943 306.32228088 C18.57029345 302.37403922 18.57939291 298.42577291 18.58946228 294.47749329 C18.61087493 286.73849205 18.6449852 278.99961553 18.68711853 271.26069641 C17.75029236 271.27640686 16.81346619 271.29211731 15.84825134 271.30830383 C12.31450167 271.35996302 8.78116326 271.39730063 5.24717712 271.42549133 C3.72855732 271.44041753 2.20997936 271.46076601 0.69151306 271.48701477 C-16.68077783 271.77941967 -32.26058906 268.67538125 -45.75038147 256.82319641 C-47.29122314 255.32263818 -48.81377104 253.80294671 -50.31288147 252.26069641 C-50.94710022 251.64710266 -51.58131897 251.03350891 -52.23475647 250.40132141 C-67.10490491 235.00479603 -68.45159509 214.51246684 -68.48988342 194.31269836 C-68.49616413 192.83951666 -68.50281228 191.36633649 -68.50979614 189.89315796 C-68.53064218 185.09510867 -68.54117786 180.29705975 -68.55116272 175.49897766 C-68.5552171 173.83545097 -68.55933421 172.17192444 -68.5635128 170.50839806 C-68.58251909 162.69051526 -68.59676141 154.87264165 -68.60512477 147.05474025 C-68.61489024 138.07892886 -68.64121098 129.10336451 -68.68162566 120.12764007 C-68.71192437 113.15567404 -68.72660645 106.18377834 -68.72990578 99.21174783 C-68.73223983 95.06303284 -68.7409837 90.91458312 -68.76636696 86.76593971 C-68.78989675 82.85790281 -68.79378278 78.95030131 -68.78360558 75.04221153 C-68.78311615 73.62179477 -68.78925742 72.20135465 -68.80316162 70.78100586 C-68.97950841 51.67173106 -64.00549623 33.40445861 -50.56581116 19.31977844 C-36.44582337 5.22372284 -19.49486527 -0.06002581 0 0 Z M-32.10194397 42.43257141 C-38.95562516 52.22354455 -39.75379941 60.60782511 -39.70106506 72.33052063 C-39.70513536 73.85240555 -39.7104798 75.37428752 -39.71699524 76.89616394 C-39.73062261 81.01200716 -39.72538861 85.1276237 -39.71585798 89.24347067 C-39.7082348 93.56294943 -39.71531462 97.88240947 -39.72001648 102.20188904 C-39.72546748 109.45639001 -39.71830088 116.71079923 -39.70399475 123.96528625 C-39.6876818 132.33365364 -39.6929495 140.70180157 -39.70947397 149.07016361 C-39.72312228 156.27213912 -39.72499182 163.47404886 -39.71715796 170.67603314 C-39.7124982 174.96984329 -39.71180936 179.26355057 -39.72176743 183.55735397 C-39.73048321 187.59745336 -39.72433172 191.63727214 -39.70708466 195.67734146 C-39.70314376 197.15347072 -39.70421238 198.62962391 -39.71087265 200.10574341 C-39.7659543 213.56229145 -37.86430154 223.74114556 -28.78944397 233.97944641 C-16.99371808 245.25731116 -2.10527955 243.92557241 13.06211853 243.82319641 C16.34387338 243.80656345 19.62474038 243.79753148 22.9065094 243.81292725 C24.93660276 243.822161 26.96688629 243.81319845 28.9967804 243.78329468 C34.67748955 243.80535767 38.387335 244.14954371 42.68711853 248.26069641 C46.76089063 254.62499442 46.07078444 261.50271348 45.98008728 268.85054016 C45.97584244 270.15020218 45.9715976 271.4498642 45.96722412 272.78890991 C45.95583802 276.223289 45.92642603 279.65727992 45.89311218 283.09150696 C45.86227561 286.60423026 45.84868994 290.11701704 45.83360291 293.62983704 C45.80154916 300.50694836 45.75042968 307.38380368 45.68711853 314.26069641 C50.09687629 310.56757668 54.29407607 306.76736988 58.33946228 302.67085266 C58.84328934 302.16323898 59.34711639 301.65562531 59.86621094 301.13262939 C61.98612074 298.99663589 64.09993463 296.85464939 66.21421814 294.71308899 C76.3349154 284.47356383 76.3349154 284.47356383 80.59336853 280.85835266 C84.29471415 277.70156183 87.7078815 274.3006634 91.12852478 270.84663391 C91.7049321 270.26471786 92.28133942 269.68280182 92.87521362 269.08325195 C95.27506583 266.65573229 97.67128352 264.22469951 100.06285095 261.78901672 C101.83024101 259.99121635 103.60397599 258.19986467 105.37852478 256.40913391 C106.17257469 255.59489456 106.17257469 255.59489456 106.98266602 254.76420593 C112.8894656 248.81859415 118.28467482 244.16708331 127.02214432 244.11942828 C128.11253824 244.12103066 128.11253824 244.12103066 129.22496033 244.12266541 C130.38710115 244.11843349 130.38710115 244.11843349 131.57271957 244.11411607 C134.17726886 244.10576173 136.78177568 244.10443108 139.38633728 244.10298157 C141.25068278 244.09831378 143.11502714 244.09317027 144.97937012 244.08758545 C148.99974969 244.07629723 153.02012181 244.06786636 157.04051208 244.06146622 C163.40353659 244.05078766 169.76650788 244.03054144 176.12950134 244.00834656 C194.22566785 243.94642309 212.32183178 243.89246379 230.41807556 243.85932922 C240.40838887 243.84095637 250.39861354 243.81198397 260.38886166 243.77132452 C265.67371774 243.75029352 270.9584623 243.73480283 276.24336243 243.73251724 C281.22072199 243.73036226 286.19784964 243.71440635 291.17513847 243.68812752 C292.99592241 243.68096449 294.81673454 243.67881892 296.63752937 243.68223 C311.00245305 243.70483013 322.5676012 243.08398812 333.37071228 232.63179016 C339.90134785 225.61257837 342.79882173 217.35719091 342.83428955 207.88664246 C342.84144485 206.57457321 342.84860016 205.26250397 342.85597229 203.91067505 C342.85881241 202.4581759 342.86152416 201.00567649 342.86412048 199.55317688 C342.87038773 198.02203213 342.87703476 196.4908889 342.8840332 194.95974731 C342.90504847 189.93247023 342.9154346 184.90519294 342.92539978 179.87788391 C342.92944857 178.14458831 342.93356552 176.41129287 342.93774986 174.67799759 C342.95679756 166.53226638 342.97102834 158.38654421 342.97936183 150.24079502 C342.98912694 140.85168448 343.01542919 131.46281015 343.05586272 122.0737828 C343.08607294 114.80821121 343.10083543 107.54270713 343.10414284 100.27707398 C343.10648812 95.94177456 343.11537995 91.60672761 343.14060402 87.27149582 C343.16397527 83.1887502 343.16808191 79.10642164 343.15784264 75.02362633 C343.15734932 73.53135601 343.16360902 72.03906452 343.17739868 70.54685783 C343.28955433 57.68262581 341.15829193 48.96458193 332.12071228 39.52632141 C322.25726282 30.34365578 313.68791096 28.96044637 300.57437134 28.99327087 C299.23489416 28.98953132 297.89541916 28.98492858 296.5559476 28.97954023 C292.88553252 28.96733263 289.21520873 28.96756804 285.54477799 28.96992898 C281.58214999 28.97033771 277.61955105 28.95929265 273.65693665 28.94981384 C265.89740945 28.9332154 258.13791264 28.92770483 250.37836917 28.92658909 C244.06997867 28.92563811 237.76159817 28.92152532 231.45321083 28.91518784 C213.56052269 28.89757893 195.66785852 28.88834847 177.77516165 28.88984878 C176.81097314 28.8899287 175.84678464 28.89000861 174.8533783 28.89009094 C173.88801011 28.8901727 172.92264192 28.89025447 171.92802016 28.8903387 C156.28295217 28.8911516 140.63798047 28.872012 124.99294033 28.84381421 C108.92162721 28.81507709 92.85036103 28.80127436 76.77902156 28.80300176 C67.75901874 28.80366535 58.73911685 28.79818644 49.71913719 28.77664566 C42.03949924 28.75842302 34.360008 28.75409545 26.68035778 28.76766451 C22.76412724 28.77418859 18.84817808 28.77433182 14.93197441 28.75695801 C11.34235484 28.74119718 7.75323904 28.74412103 4.16363154 28.76152627 C2.25959232 28.76603361 0.35553728 28.75096246 -1.54844075 28.73504698 C-13.8050346 28.83327075 -24.15503076 32.78522699 -32.10194397 42.43257141 Z " fill="#EDE8DB" transform="translate(357.31288146972656,151.7393035888672)"/>
<path d="M0 0 C3.98770045 2.06769653 6.61143232 4.21723424 9 8 C9.38476086 10.24133682 9.38476086 10.24133682 9.39872742 12.73297119 C9.41126556 13.6808551 9.42380371 14.62873901 9.4367218 15.60534668 C9.43528671 16.63824829 9.43385162 17.6711499 9.43237305 18.73535156 C9.44766052 20.37482758 9.44766052 20.37482758 9.46325684 22.04742432 C9.4934628 25.66187618 9.50266464 29.27606334 9.51171875 32.890625 C9.52855975 35.39598476 9.54670919 37.90133605 9.56611633 40.40667725 C9.60882245 46.32806944 9.63832653 52.24943429 9.66143972 58.17092681 C9.69114832 65.57498019 9.74134561 72.97887077 9.79101562 80.3828125 C9.87712703 93.5884773 9.94500699 106.79417084 10 120 C10.4590976 119.53868179 10.91819519 119.07736359 11.39120483 118.60206604 C16.15721272 113.81398546 20.92669678 109.02938826 25.69824219 104.24682617 C27.48006713 102.45996323 29.26099478 100.67220506 31.04101562 98.88354492 C33.59531722 96.31715448 36.15279701 93.75396943 38.7109375 91.19140625 C39.90944839 89.98515343 39.90944839 89.98515343 41.13217163 88.75453186 C41.87278839 88.01383957 42.61340515 87.27314728 43.37646484 86.51000977 C44.02932465 85.85492935 44.68218445 85.19984894 45.35482788 84.5249176 C48.70614108 81.41856999 51.98110156 81.55508088 56.3828125 81.57421875 C60.6768757 82.27280515 63.24999169 84.75381282 66 88 C67.14938555 90.29877109 67.19841264 91.75462681 67.25 94.3125 C67.28867187 95.45138672 67.28867187 95.45138672 67.328125 96.61328125 C66.47310857 102.8325079 61.40486649 106.83580558 57.125 111 C56.51269531 111.60328125 55.90039062 112.2065625 55.26953125 112.828125 C54.11707502 113.96330673 52.96255656 115.09640205 51.80517578 116.2265625 C47.78648834 120.17459408 43.88982757 124.18229316 40.1171875 128.3671875 C33.94364351 135.15204216 27.53044761 141.68996301 21.0546875 148.18554688 C19.09957304 150.15055564 17.15537685 152.12599656 15.2109375 154.1015625 C13.95638438 155.36263133 12.7011996 156.62307216 11.4453125 157.8828125 C10.87128693 158.46918488 10.29726135 159.05555725 9.70584106 159.65969849 C5.47610505 163.86613104 1.7674142 166.2641261 -4.375 166.375 C-5.08398438 166.40335938 -5.79296875 166.43171875 -6.5234375 166.4609375 C-14.13614278 165.04406175 -19.33637228 159.07713156 -24.53125 153.796875 C-25.72337097 152.60194427 -25.72337097 152.60194427 -26.9395752 151.38287354 C-28.61379759 149.70195162 -30.28442979 148.01744707 -31.95166016 146.32958984 C-34.48483112 143.76535489 -37.02842598 141.21185459 -39.57421875 138.66015625 C-41.20635156 137.01884785 -42.83788185 135.37694003 -44.46875 133.734375 C-45.21999146 132.97888367 -45.97123291 132.22339233 -46.74523926 131.44500732 C-50.82095726 127.31472526 -54.73892484 123.10234544 -58.50546265 118.68745422 C-60.53946295 116.39090245 -62.7867338 114.41863551 -65.125 112.4375 C-74.37858627 104.18544517 -74.37858627 104.18544517 -75.43359375 98.77734375 C-75.72961969 93.40402449 -74.56933968 90.16422962 -71 86 C-68.02600935 83.34871897 -66.10716153 82.56870274 -62.125 82.5625 C-61.30257813 82.54316406 -60.48015625 82.52382813 -59.6328125 82.50390625 C-52.87621005 83.7770346 -48.04074082 89.692557 -43.4140625 94.390625 C-42.71227875 95.09523865 -42.010495 95.79985229 -41.28744507 96.52581787 C-39.06186348 98.76253435 -36.84336361 101.00612689 -34.625 103.25 C-33.11114046 104.77389797 -31.5968223 106.29734047 -30.08203125 107.8203125 C-26.38269587 111.54161942 -22.68913952 115.26858659 -19 119 C-18.99853344 118.4386202 -18.99706688 117.87724041 -18.99555588 117.29884911 C-18.95847331 103.62715463 -18.89918766 89.95571086 -18.81609726 76.28421593 C-18.77658443 69.67270284 -18.74441441 63.06132371 -18.72900391 56.44970703 C-18.71386272 50.06938877 -18.67946148 43.68943869 -18.63169098 37.30928421 C-18.61685113 34.87486597 -18.6089575 32.44039518 -18.60811615 30.00593185 C-18.6057527 26.59649121 -18.57872103 23.18807317 -18.54589844 19.77880859 C-18.55344398 18.26829422 -18.55344398 18.26829422 -18.56114197 16.7272644 C-18.47334983 10.83480082 -17.88184337 7.51123859 -14 3 C-9.80337343 -0.59710849 -5.29956195 -0.85054698 0 0 Z " fill="#EDE8DB" transform="translate(516,463)"/>
<path d="M0 0 C8.50930853 4.49883442 14.24931952 10.84461563 17.24609375 20.1875 C18.45532527 30.80315751 17.60424301 39.28880819 11.24609375 48.1875 C5.5793662 54.8592241 -1.50038712 58.60776012 -10.1875 59.56640625 C-19.98782385 59.89343536 -26.47344102 58.08973339 -34.00390625 51.875 C-41.53812387 44.82105123 -44.67646298 38.17491039 -45.12890625 27.8125 C-44.90031122 18.61789988 -41.29650296 11.79280889 -35.046875 5.16796875 C-25.06343938 -3.45486236 -11.98296012 -5.52174803 0 0 Z " fill="#EDE8DB" transform="translate(624.75390625,263.8125)"/>
<path d="M0 0 C8.25074302 4.90052094 14.19743331 11.09150737 17.02734375 20.33203125 C18.55491683 27.95588221 18.25777644 36.57242388 14.453125 43.45703125 C8.91610178 51.09193283 1.99930034 57.66382704 -7.546875 59.45703125 C-18.07113151 60.32692237 -26.34684409 58.99023095 -34.796875 52.45703125 C-41.10832676 46.38931441 -44.71076623 39.15543457 -45.20703125 30.41186523 C-45.33780294 20.46504377 -42.5665195 13.55116149 -35.984375 6.14453125 C-26.06483642 -3.03057666 -12.35767581 -5.64068105 0 0 Z " fill="#EEE8DC" transform="translate(524.546875,263.54296875)"/>
<path d="M0 0 C7.69990843 6.19340461 13.07793893 13.30198562 14.21875 23.3359375 C14.49075265 32.33469188 12.49288535 39.21622376 6.875 46.3125 C-0.59636102 54.03487512 -6.24726509 57.36638892 -17 57.75 C-25.78248237 57.53396033 -33.02306301 55.19451256 -39.5234375 49.15625 C-46.58451 41.02740556 -48.61924012 33.62840718 -48.53125 23.05859375 C-47.62093635 14.66445152 -43.19227719 7.35093381 -36.98828125 1.7109375 C-25.61091123 -6.828053 -12.26239045 -6.62169085 0 0 Z " fill="#EDE8DC" transform="translate(427.125,265.6875)"/>
<path d="M0 0 C15.93354018 -0.09349416 31.86700615 -0.16400399 47.80075264 -0.20724869 C55.19929303 -0.22786282 62.59766285 -0.2559612 69.99609375 -0.30175781 C76.44553552 -0.34166106 82.89485375 -0.36744117 89.34441555 -0.37635398 C92.75860635 -0.38156292 96.17244375 -0.39378114 99.58652115 -0.42292023 C103.40050536 -0.45192063 107.21375545 -0.45595721 111.02783203 -0.45410156 C112.15640121 -0.46848267 113.2849704 -0.48286377 114.44773865 -0.49768066 C120.58132431 -0.46535048 124.39362777 -0.22373562 129 4 C130.375 6.75 130.375 6.75 131 9 C130.01 8.34 129.02 7.68 128 7 C128 6.34 128 5.68 128 5 C127.01 5 126.02 5 125 5 C125 4.34 125 3.68 125 3 C84.41 2.67 43.82 2.34 2 2 C2.12375 18.29375 2.2475 34.5875 2.375 51.375 C2.40899902 56.50466309 2.44299805 61.63432617 2.47802734 66.91943359 C2.51797194 71.54964833 2.51797194 71.54964833 2.56045532 76.17984009 C2.57804834 78.22937348 2.59189352 80.27894127 2.60269165 82.32852173 C2.61987185 85.44751372 2.6492439 88.56618691 2.68115234 91.68505859 C2.68332449 92.58591375 2.68549664 93.48676891 2.6877346 94.41492271 C2.76685009 100.46964385 3.6231812 106.1061111 5 112 C0.95270542 108.37433051 0.2142754 103.90198413 -0.17276382 98.66021729 C-0.24489876 96.0444311 -0.24759926 93.43700642 -0.22705078 90.8203125 C-0.22734283 89.83403366 -0.22763489 88.84775482 -0.22793579 87.83158875 C-0.22655081 84.59596732 -0.21102883 81.36058083 -0.1953125 78.125 C-0.19157942 75.87199021 -0.18873384 73.61897879 -0.18673706 71.3659668 C-0.17912389 65.45423857 -0.15949532 59.5426096 -0.1373291 53.63092041 C-0.11682071 47.59120018 -0.10772468 41.55146381 -0.09765625 35.51171875 C-0.07624722 23.67443571 -0.0421393 11.83722613 0 0 Z " fill="#1F1F1D" transform="translate(257,679)"/>
<path d="M0 0 C0.33 0 0.66 0 1 0 C1 36.96 1 73.92 1 112 C-6.875 105.25 -6.875 105.25 -9.45678711 102.65673828 C-10.0368602 102.07658966 -10.61693329 101.49644104 -11.21458435 100.89871216 C-11.81279495 100.29534027 -12.41100555 99.69196838 -13.02734375 99.0703125 C-13.66112442 98.43511688 -14.29490509 97.79992126 -14.94789124 97.14547729 C-16.94681406 95.14101284 -18.94220784 93.13307786 -20.9375 91.125 C-22.30250133 89.75497611 -23.6677336 88.38518226 -25.03320312 87.015625 C-28.35814211 83.67973457 -31.67992353 80.34072964 -35 77 C-34.505 76.01 -34.505 76.01 -34 75 C-31.48917747 77.51082253 -28.97967393 80.02083422 -26.5 82.5625 C-24.10609032 84.99456247 -24.10609032 84.99456247 -21.625 86.8125 C-18.77245281 89.18962266 -16.52823182 91.78312746 -14.12939453 94.60473633 C-11.76564764 97.26361281 -9.28653228 99.76726492 -6.76171875 102.2734375 C-5.86799561 103.16208496 -4.97427246 104.05073242 -4.0534668 104.96630859 C-3.37582275 105.63742676 -2.69817871 106.30854492 -2 107 C-1.99576806 106.45462617 -1.99153612 105.90925234 -1.98717594 105.34735203 C-1.88400029 92.09477185 -1.77531928 78.84224676 -1.66066074 65.58976078 C-1.60538119 59.18103358 -1.55195329 52.77230185 -1.50268555 46.36352539 C-1.45511605 40.18436499 -1.40277622 34.00526209 -1.34705925 27.82616997 C-1.32660198 25.46296041 -1.30789462 23.09973506 -1.29092598 20.73649788 C-1.26695635 17.43893826 -1.23689199 14.14148848 -1.20532227 10.84399414 C-1.1995668 9.85641113 -1.19381134 8.86882812 -1.18788147 7.85131836 C-1.17809265 6.95804337 -1.16830383 6.06476837 -1.15821838 5.14442444 C-1.15176583 4.36366578 -1.14531328 3.58290712 -1.1386652 2.77848911 C-1 1 -1 1 0 0 Z " fill="#191816" transform="translate(497,471)"/>
<path d="M0 0 C2.15141487 -0.36914349 2.15141487 -0.36914349 4.87210083 -0.36076355 C5.90137695 -0.36488754 6.93065308 -0.36901154 7.99111938 -0.3732605 C9.12471893 -0.36247467 10.25831848 -0.35168884 11.42626953 -0.34057617 C12.61649719 -0.34101425 13.80672485 -0.34145233 15.03302002 -0.34190369 C18.30154545 -0.34016867 21.56968823 -0.32509764 24.83813715 -0.30418181 C28.25209047 -0.28545959 31.66605087 -0.2836681 35.08004761 -0.28010559 C41.54700949 -0.27077197 48.01381967 -0.24614053 54.48071468 -0.21605712 C61.84214735 -0.18255394 69.20358717 -0.16603741 76.56507707 -0.15097082 C91.71013814 -0.119592 106.85504826 -0.06620356 122 0 C122 4.95 122 9.9 122 15 C121.67 15 121.34 15 121 15 C119.84863148 10.39452591 120 7.06005857 120 2 C79.74 2.33 39.48 2.66 -2 3 C-1.34 2.01 -0.68 1.02 0 0 Z " fill="#232220" transform="translate(644,679)"/>
<path d="M0 0 C3.18994412 1.49207064 5.97333628 3.3236697 8.875 5.3125 C27.19112087 17.10473373 44.85982745 15.32908568 67 16 C67.33 38.77 67.66 61.54 68 85 C64.75978728 80.67971637 64.62876917 79.87180484 64.65942383 74.76269531 C64.65965042 73.50169006 64.65987701 72.24068481 64.66011047 70.94146729 C64.67542918 69.57034956 64.69107715 68.19923548 64.70703125 66.828125 C64.71262914 65.42137098 64.71689833 64.01461109 64.71989441 62.60784912 C64.73132815 58.91204576 64.7607822 55.21659821 64.79400635 51.52093506 C64.82473923 47.74707858 64.83840659 43.9731644 64.85351562 40.19921875 C64.88565371 32.79931727 64.93683176 25.39970856 65 18 C63.85217796 18.01178284 63.85217796 18.01178284 62.6811676 18.02380371 C59.16376647 18.05527295 55.64639512 18.0745892 52.12890625 18.09375 C50.32371521 18.11260254 50.32371521 18.11260254 48.48205566 18.13183594 C38.98244941 18.17056374 30.23936341 17.04507649 21 15 C20.34 15 19.68 15 19 15 C19 14.34 19 13.68 19 13 C17.7934375 12.690625 17.7934375 12.690625 16.5625 12.375 C11.88373651 10.56916146 8.06438254 7.90418607 4 5 C3.24976563 4.48308594 2.49953125 3.96617187 1.7265625 3.43359375 C1.15679687 2.96050781 0.58703125 2.48742187 0 2 C0 1.34 0 0.68 0 0 Z " fill="#020303" transform="translate(309,407)"/>
<path d="M0 0 C0.33 0.99 0.66 1.98 1 3 C1.57776278 2.99815641 2.15552557 2.99631283 2.75079632 2.99441338 C16.81419963 2.95022939 30.87759253 2.91714102 44.94105053 2.89637566 C51.7420571 2.88606657 58.54301732 2.87201327 65.34399414 2.84912109 C71.90567738 2.82704492 78.46732507 2.81543528 85.02904701 2.81024551 C87.5341092 2.8065464 90.03916872 2.7993231 92.54421043 2.78853989 C96.04930727 2.77405011 99.55420427 2.77202103 103.05932617 2.77294922 C104.09798325 2.76575867 105.13664032 2.75856812 106.20677185 2.75115967 C107.16444458 2.753909 108.12211731 2.75665833 109.10881042 2.75949097 C109.93750232 2.75764738 110.76619421 2.75580379 111.61999798 2.75390434 C114.35562287 3.03677192 116.50110266 3.87830577 119 5 C116.03434268 5.98855244 114.17214982 6.11133683 111.08357239 6.08229065 C109.56283867 6.07173141 109.56283867 6.07173141 108.01138306 6.06095886 C106.90008026 6.04801285 105.78877747 6.03506683 104.64379883 6.02172852 C103.47293228 6.01212097 102.30206573 6.00251343 101.09571838 5.99261475 C97.88520549 5.96526838 94.67477621 5.93337102 91.4643271 5.89946485 C88.10911904 5.86510102 84.75386179 5.83653489 81.39860535 5.80735779 C75.04503782 5.75122449 68.69153191 5.6898656 62.33803147 5.62663645 C55.10476206 5.55490587 47.87144334 5.48898984 40.63811457 5.42356598 C25.75867901 5.2888543 10.8793213 5.14682843 -4 5 C-2.25 1.125 -2.25 1.125 0 0 Z " fill="#2C2B28" transform="translate(271,647)"/>
<path d="M0 0 C0.33 0 0.66 0 1 0 C1.19991342 11.56937919 1.38366764 23.13888999 1.54658794 34.70885277 C1.62274441 40.08080707 1.70454123 45.45255387 1.79907227 50.82421875 C1.89003381 56.00469465 1.96638321 61.18519578 2.03244972 66.36604691 C2.06029818 68.34614771 2.09348091 70.32618067 2.13199425 72.30610275 C2.18489516 75.07175666 2.21910666 77.8370407 2.2487793 80.60302734 C2.26891586 81.42805252 2.28905243 82.2530777 2.30979919 83.10310364 C2.32279968 85.38070679 2.32279968 85.38070679 2 89 C0.515 89.99 0.515 89.99 -1 91 C-1.02312215 79.28273212 -1.04091443 67.56546963 -1.05181217 55.84818363 C-1.05704128 50.40797688 -1.06413943 44.96778569 -1.07543945 39.52758789 C-1.08626735 34.28214298 -1.09227662 29.03671308 -1.09487724 23.79125786 C-1.09673167 21.78529054 -1.10035262 19.77932408 -1.10573006 17.77336311 C-1.11293919 14.97397176 -1.113991 12.17464321 -1.11352539 9.37524414 C-1.11712067 8.53727295 -1.12071594 7.69930176 -1.12442017 6.8359375 C-1.11405216 1.11405216 -1.11405216 1.11405216 0 0 Z " fill="#010101" transform="translate(526,493)"/>
<path d="M0 0 C0.66 0.33 1.32 0.66 2 1 C1.34 1.99 0.68 2.98 0 4 C-0.66 4 -1.32 4 -2 4 C-2.08378906 4.58265625 -2.16757812 5.1653125 -2.25390625 5.765625 C-3.21726696 8.65066337 -4.62979704 9.79700726 -6.9375 11.75 C-7.64777344 12.36359375 -8.35804688 12.9771875 -9.08984375 13.609375 C-11 15 -11 15 -13 15 C-13.20367187 15.52851563 -13.40734375 16.05703125 -13.6171875 16.6015625 C-15.60512062 20.04955949 -18.30110968 22.59528271 -21.125 25.375 C-21.70958984 25.95644775 -22.29417969 26.53789551 -22.89648438 27.13696289 C-26.51479945 30.68680985 -30.20128626 33.85086183 -34.37890625 36.734375 C-36.09174056 38.07162396 -37.17121545 39.43090325 -38.4375 41.1875 C-42.45782291 45.60004953 -46.92263549 46.80712896 -52.8046875 47.17578125 C-55.2122917 47.18601186 -57.59659244 47.13547391 -60 47 C-60.33 46.34 -60.66 45.68 -61 45 C-60.05898438 44.97421875 -59.11796875 44.9484375 -58.1484375 44.921875 C-56.90320313 44.86515625 -55.65796875 44.8084375 -54.375 44.75 C-53.14523437 44.70359375 -51.91546875 44.6571875 -50.6484375 44.609375 C-44.41089928 43.56755919 -40.42191766 39.67329984 -36.1015625 35.26171875 C-35.20953125 34.35873047 -34.3175 33.45574219 -33.3984375 32.52539062 C-32.02558594 31.12063477 -32.02558594 31.12063477 -30.625 29.6875 C-25.17025386 24.1281529 -19.73888609 18.65251065 -13.81787109 13.58862305 C-10.91003906 11.04749183 -8.20688541 8.31426999 -5.5 5.5625 C-4.96375 5.02173828 -4.4275 4.48097656 -3.875 3.92382812 C-2.58095964 2.61823383 -1.29011826 1.30947004 0 0 Z " fill="#080909" transform="translate(450,459)"/>
<path d="M0 0 C2.51388117 -0.28666087 4.78074913 -0.37862623 7.29541016 -0.34057617 C8.42238564 -0.34123329 8.42238564 -0.34123329 9.5721283 -0.34190369 C12.06136858 -0.33980969 14.54993955 -0.31645062 17.0390625 -0.29296875 C18.76255933 -0.28737495 20.48606091 -0.28310383 22.20956421 -0.28010559 C26.75037763 -0.26863976 31.29090412 -0.2391578 35.831604 -0.20599365 C40.46321735 -0.1753301 45.09487696 -0.16160822 49.7265625 -0.14648438 C58.81783455 -0.11428963 67.90889343 -0.06307243 77 0 C75 2 75 2 71.95016479 2.24050903 C70.64000397 2.23606781 69.32984314 2.23162659 67.97998047 2.22705078 C67.25792419 2.22734283 66.53586792 2.22763489 65.79193115 2.22793579 C63.40022858 2.22654008 61.00883579 2.21096783 58.6171875 2.1953125 C56.9609494 2.19158322 55.30470911 2.18873585 53.64846802 2.18673706 C49.2852776 2.17909389 44.92221993 2.1594396 40.55908203 2.1373291 C36.10841671 2.11688535 31.65772997 2.1077385 27.20703125 2.09765625 C18.47129319 2.07619429 9.7356631 2.04205018 1 2 C0.67 2.99 0.34 3.98 0 5 C-0.66 4.34 -1.32 3.68 -2 3 C-1.34 2.01 -0.68 1.02 0 0 Z " fill="#373531" transform="translate(327,557)"/>
<path d="M0 0 C0.65421936 0.00960754 1.30843872 0.01921509 1.98248291 0.02911377 C4.13060908 0.06192005 6.27851999 0.10232118 8.42651367 0.14282227 C9.92151648 0.16714139 11.41652711 0.19098404 12.9115448 0.21437073 C16.83577419 0.27703345 20.75986415 0.34614997 24.68395996 0.41662598 C28.69248129 0.48747086 32.70110103 0.55219097 36.7097168 0.61743164 C44.5672477 0.7462142 52.42464184 0.88181721 60.28198242 1.02172852 C60.28198242 1.35172852 60.28198242 1.68172852 60.28198242 2.02172852 C59.43086884 2.02537415 58.57975525 2.02901978 57.70285034 2.03277588 C49.66947248 2.07069224 41.63649909 2.12758621 33.60340691 2.20563126 C29.47378865 2.24508742 25.34438303 2.27728483 21.21459961 2.29272461 C17.22671943 2.30790376 13.23942388 2.34237078 9.25180435 2.39003754 C7.73288183 2.40483852 6.21387584 2.4127688 4.69488144 2.41361237 C2.56166508 2.41598784 0.43005689 2.44310932 -1.70288086 2.47583008 C-2.91533478 2.48471252 -4.1277887 2.49359497 -5.37698364 2.50274658 C-9.34638237 3.11933602 -11.48504518 4.7097913 -14.71801758 7.02172852 C-15.70801758 7.02172852 -16.69801758 7.02172852 -17.71801758 7.02172852 C-11.94013317 0.70636648 -8.65053601 -0.14661925 0 0 Z " fill="#010101" transform="translate(629.718017578125,526.978271484375)"/>
<path d="M0 0 C-1.63778045 4.19625909 -4.73323182 6.98676785 -7.8828125 10.078125 C-8.45707977 10.64956238 -9.03134705 11.22099976 -9.62301636 11.80975342 C-11.4523581 13.62792945 -13.28854193 15.43901492 -15.125 17.25 C-16.36894774 18.48391329 -17.6124427 19.71828322 -18.85546875 20.953125 C-21.89842367 23.97406743 -24.94753254 26.98867092 -28 30 C-28.66 29.34 -29.32 28.68 -30 28 C-26.05534383 24.00602615 -22.10425446 20.01857403 -18.14697266 16.03710938 C-16.80076671 14.68082557 -15.45635851 13.32275497 -14.11376953 11.96289062 C-12.18728284 10.01223399 -10.25449117 8.06802606 -8.3203125 6.125 C-7.41709763 5.20630127 -7.41709763 5.20630127 -6.49563599 4.26904297 C-2.22774341 0 -2.22774341 0 0 0 Z " fill="#232422" transform="translate(560,548)"/>
<path d="M0 0 C0.66 0 1.32 0 2 0 C2.93469245 1.50622413 3.79728934 3.05743623 4.625 4.625 C8.6263163 11.49133646 14.0217501 15.89974401 21.5703125 18.4765625 C26.96076114 19.63784886 32.50408006 19.77614933 38 20 C38 20.66 38 21.32 38 22 C28.11896896 22.26745648 19.19137921 22.29071011 11 16 C5.89612337 11.10633245 1.90811858 6.92576372 0 0 Z " fill="#050605" transform="translate(379,303)"/>
<path d="M0 0 C-2.23284257 5.2776279 -5.65867135 9.76008798 -11 12 C-12.35113205 12.97581759 -13.68946944 13.97029741 -15 15 C-13.387672 10.96918 -10.53765404 8.24055863 -7.5 5.25 C-7.00113281 4.74339844 -6.50226562 4.23679687 -5.98828125 3.71484375 C-2.25341139 0 -2.25341139 0 0 0 Z M-17 15 C-16.34 15.33 -15.68 15.66 -15 16 C-18.465 18.97 -18.465 18.97 -22 22 C-20.38262276 18.76524552 -19.52370777 17.29427979 -17 15 Z " fill="#1E1D1B" transform="translate(580,568)"/>
<path d="M0 0 C3.68522591 1.48059849 5.35047863 3.45997735 7.6875 6.625 C14.25448907 15.0491967 21.67344049 20.85968327 31 26 C30.34 26.33 29.68 26.66 29 27 C26.20235445 25.95168684 23.62279424 24.42461126 21 23 C20.32453125 22.65195312 19.6490625 22.30390625 18.953125 21.9453125 C14.12363903 19.37091709 14.12363903 19.37091709 13 16 C12.34 15.67 11.68 15.34 11 15 C11 14.34 11 13.68 11 13 C10.41734375 12.78601563 9.8346875 12.57203125 9.234375 12.3515625 C6.23341439 10.53629612 5.05522539 8.36056506 3.25 5.375 C2.63640625 4.37210938 2.0228125 3.36921875 1.390625 2.3359375 C0.93171875 1.56507813 0.4728125 0.79421875 0 0 Z " fill="#060606" transform="translate(402,715)"/>
<path d="M0 0 C0.66 0.33 1.32 0.66 2 1 C-1.39902191 7.04270562 -5.61975473 13.54738323 -11 18 C-11.99 18 -12.98 18 -14 18 C-14.2475 18.639375 -14.495 19.27875 -14.75 19.9375 C-16 22 -16 22 -18.125 22.75 C-19.053125 22.87375 -19.053125 22.87375 -20 23 C-18.29615789 19.48582565 -16.27166369 17.26587343 -13.3125 14.8125 C-8.48361786 10.76160442 -4.82418817 5.97812027 -1 1 C-0.67 0.67 -0.34 0.34 0 0 Z " fill="#070808" transform="translate(622,713)"/>
<path d="M0 0 C9.32858578 5.91420144 16.22871377 11.36984391 18.8125 22.5 C19.02770837 26.51722299 18.62671995 30.03077362 18 34 C17.67 34 17.34 34 17 34 C16.98582031 33.24976563 16.97164062 32.49953125 16.95703125 31.7265625 C16.53649287 22.7020362 14.47845248 16.00022035 8.5 9.125 C5.09341958 6.22940664 1.72248636 3.48165758 -2 1 C-1.34 0.67 -0.68 0.34 0 0 Z " fill="#181817" transform="translate(625,262)"/>
<path d="M0 0 C3.83210759 1.2773692 4.10811712 2.54261505 6.0625 6 C11.23254117 14.40541577 18.18933724 20.59466862 27 25 C27 25.66 27 26.32 27 27 C25.32332564 26.35891863 23.65910004 25.68528045 22 25 C21.05125 24.62875 20.1025 24.2575 19.125 23.875 C12.75738334 20.05443 8.57444015 13.59553138 4.26171875 7.6640625 C2.96129567 5.87047262 2.96129567 5.87047262 1 4 C0.375 1.875 0.375 1.875 0 0 Z " fill="#060605" transform="translate(234,805)"/>
<path d="M0 0 C0.99 0.33 1.98 0.66 3 1 C2.50371094 1.4125 2.00742187 1.825 1.49609375 2.25 C-2.1853009 5.37953473 -5.44102414 8.45165031 -8.4375 12.25 C-12.05151156 16.46907232 -15.54254686 18.12856797 -21 19 C-24.35273979 19.20135169 -27.6475173 19.18897084 -31 19 C-31.33 18.34 -31.66 17.68 -32 17 C-31.05898438 16.97421875 -30.11796875 16.9484375 -29.1484375 16.921875 C-27.90320313 16.86515625 -26.65796875 16.8084375 -25.375 16.75 C-24.14523437 16.70359375 -22.91546875 16.6571875 -21.6484375 16.609375 C-14.6524346 15.44087773 -10.36834147 10.64559688 -5.625 5.75 C-4.80708984 4.91855469 -4.80708984 4.91855469 -3.97265625 4.0703125 C-2.64377023 2.71811269 -1.32121452 1.3596965 0 0 Z " fill="#010202" transform="translate(421,487)"/>
<path d="M0 0 C0.33 0.66 0.66 1.32 1 2 C-0.21582031 4.38256836 -0.21582031 4.38256836 -2.078125 7.33984375 C-2.74457031 8.40267578 -3.41101563 9.46550781 -4.09765625 10.56054688 C-4.45102051 11.11476318 -4.80438477 11.66897949 -5.16845703 12.23999023 C-6.2399713 13.92175969 -7.29779674 15.61222521 -8.35546875 17.30273438 C-14.04129608 26.3116604 -14.04129608 26.3116604 -17 29 C-15.04000684 18.58753634 -6.06086251 8.52094049 0 0 Z " fill="#F2F2ED" transform="translate(305,589)"/>
<path d="M0 0 C0.66 0 1.32 0 2 0 C0.47146065 4.27186525 -1.71509481 7.99326863 -4.125 11.8125 C-4.49753906 12.40998047 -4.87007813 13.00746094 -5.25390625 13.62304688 C-6.1657048 15.08426251 -7.08235976 16.54244585 -8 18 C-8.66 17.34 -9.32 16.68 -10 16 C-8.38661617 13.32613853 -6.75743621 10.66226511 -5.125 8 C-4.66480469 7.236875 -4.20460938 6.47375 -3.73046875 5.6875 C-3.28574219 4.965625 -2.84101563 4.24375 -2.3828125 3.5 C-1.97434082 2.8296875 -1.56586914 2.159375 -1.14501953 1.46875 C-0.76716309 0.9840625 -0.38930664 0.499375 0 0 Z " fill="#070707" transform="translate(302,596)"/>
<path d="M0 0 C0.66 0 1.32 0 2 0 C2.45890625 0.88042969 2.9178125 1.76085937 3.390625 2.66796875 C4.00421875 3.82941406 4.6178125 4.99085938 5.25 6.1875 C5.85328125 7.33605469 6.4565625 8.48460937 7.078125 9.66796875 C8.83660815 12.71672104 10.80442742 15.26524919 13 18 C13 18.66 13 19.32 13 20 C8.83694756 18.49616608 7.50350154 16.01941682 5.375 12.25 C4.78460938 11.22390625 4.19421875 10.1978125 3.5859375 9.140625 C2.06925414 6.13714367 0.97248586 3.21594332 0 0 Z " fill="#040404" transform="translate(292,383)"/>
<path d="M0 0 C2.93360834 1.36553261 5.38636204 2.95215897 7.9375 4.9375 C10.85983238 7.17158214 13.78780959 9.19314289 17 11 C15.4375 11.75 15.4375 11.75 13 12 C10.49713591 10.86915563 8.32992278 9.47860484 6 8 C6 7.34 6 6.68 6 6 C5.34 6 4.68 6 4 6 C4 5.34 4 4.68 4 4 C3.01 3.67 2.02 3.34 1 3 C0.67 2.01 0.34 1.02 0 0 Z " fill="#040505" transform="translate(484,311)"/>
<path d="M0 0 C5.29012124 4.40843437 10.18808428 9.07559794 15 14 C14.01 14.33 13.02 14.66 12 15 C10.62437146 13.71034824 9.29233607 12.37310707 8 11 C8 10.34 8 9.68 8 9 C7.01 8.67 6.02 8.34 5 8 C2.3125 5.625 2.3125 5.625 0 3 C0 2.01 0 1.02 0 0 Z " fill="#040403" transform="translate(485,610)"/>
<path d="M0 0 C3.38212232 1.12737411 3.70120765 1.63762359 5.515625 4.52734375 C5.96164062 5.23697266 6.40765625 5.94660156 6.8671875 6.67773438 C7.32351563 7.42345703 7.77984375 8.16917969 8.25 8.9375 C8.72179687 9.67935547 9.19359375 10.42121094 9.6796875 11.18554688 C12.2419647 15.31740616 12.2419647 15.31740616 13 17 C12.67 17.66 12.34 18.32 12 19 C6.83851513 13.24863115 3.41613451 6.89466417 0 0 Z " fill="#040404" transform="translate(713,586)"/>
<path d="M0 0 C1.48521677 0.75911079 2.96303425 1.53271234 4.4375 2.3125 C5.67306641 2.95638672 5.67306641 2.95638672 6.93359375 3.61328125 C9 5 9 5 10 8 C10.66 8 11.32 8 12 8 C12 8.66 12 9.32 12 10 C12.66 10 13.32 10 14 10 C14.33 11.32 14.66 12.64 15 14 C14.34 14 13.68 14 13 14 C11.484375 12.390625 11.484375 12.390625 9.75 10.25 C7.51923975 7.60301824 5.50543502 5.45647025 2.5625 3.625 C1.716875 3.08875 0.87125 2.5525 0 2 C0 1.34 0 0.68 0 0 Z " fill="#050506" transform="translate(524,262)"/>
<path d="M0 0 C5.52855423 3.74514964 9.48480484 7.28780787 13 13 C13 13.66 13 14.32 13 15 C12.34 15 11.68 15 11 15 C9.66796875 13.42578125 9.66796875 13.42578125 8.1875 11.3125 C6.30816858 8.70360012 4.45813656 6.33848853 2.125 4.125 C1.42375 3.42375 0.7225 2.7225 0 2 C0 1.34 0 0.68 0 0 Z " fill="#070706" transform="translate(401,657)"/>
<path d="M0 0 C4.20960706 1.40320235 5.47355955 4.45028136 7.6875 8.0625 C8.10322266 8.72572266 8.51894531 9.38894531 8.94726562 10.07226562 C9.97240654 11.71013444 10.98720268 13.35446977 12 15 C11.34 15.66 10.68 16.32 10 17 C8.51678092 14.73172355 7.03832301 12.46058097 5.5625 10.1875 C5.14162109 9.54490234 4.72074219 8.90230469 4.28710938 8.24023438 C2.52277296 5.51609896 1.0308261 3.09247829 0 0 Z " fill="#F6F5F0" transform="translate(754,598)"/>
<path d="M0 0 C0 0.99 0 1.98 0 3 C-4.33830226 6.79742302 -9.46176502 8.73082115 -15 10 C-12.04732794 6.76612108 -9.12077252 4.77754751 -5.25 2.75 C-4.26515625 2.22921875 -3.2803125 1.7084375 -2.265625 1.171875 C-1.51796875 0.78515625 -0.7703125 0.3984375 0 0 Z " fill="#040504" transform="translate(703,411)"/>
<path d="M0 0 C0.66 0.33 1.32 0.66 2 1 C-2.10037573 6.24972347 -6.52964787 10.20962911 -12 14 C-12.66 13.67 -13.32 13.34 -14 13 C-13.15695312 12.22914063 -12.31390625 11.45828125 -11.4453125 10.6640625 C-10.33851968 9.65106568 -9.23175006 8.63804353 -8.125 7.625 C-7.56941406 7.11710938 -7.01382813 6.60921875 -6.44140625 6.0859375 C-4.25988219 4.0883974 -2.09183907 2.09183907 0 0 Z " fill="#010101" transform="translate(531,616)"/>
<path d="M0 0 C5.35978411 0.42037522 8.00158692 1.44585504 12 5 C12.99 5.33 13.98 5.66 15 6 C15 6.99 15 7.98 15 9 C14.45859375 8.72414063 13.9171875 8.44828125 13.359375 8.1640625 C10.68095688 6.84259131 7.97114959 5.60599624 5.25 4.375 C4.26515625 3.92898438 3.2803125 3.48296875 2.265625 3.0234375 C1.51796875 2.68570312 0.7703125 2.34796875 0 2 C0 1.34 0 0.68 0 0 Z " fill="#050606" transform="translate(417,260)"/>
<path d="M0 0 C3 1 3 1 4.60546875 3.72265625 C5.12753906 4.82480469 5.64960938 5.92695312 6.1875 7.0625 C6.71730469 8.16722656 7.24710937 9.27195312 7.79296875 10.41015625 C8.19128906 11.26480469 8.58960938 12.11945312 9 13 C8.01 13.33 7.02 13.66 6 14 C1.77676538 4.58997722 1.77676538 4.58997722 0 0 Z " fill="#040404" transform="translate(392,697)"/>
<path d="M0 0 C0 0.99 0 1.98 0 3 C-1.64453125 4.5 -1.64453125 4.5 -3.8125 6 C-6.44859162 7.84382365 -8.78947857 9.65698675 -11 12 C-11.66 11.67 -12.32 11.34 -13 11 C-12.4946875 10.51789063 -11.989375 10.03578125 -11.46875 9.5390625 C-10.8190625 8.90742188 -10.169375 8.27578125 -9.5 7.625 C-8.8503125 6.99851562 -8.200625 6.37203125 -7.53125 5.7265625 C-5.77882569 4.13524093 -5.77882569 4.13524093 -6 2 C-4.02 1.34 -2.04 0.68 0 0 Z " fill="#040405" transform="translate(597,262)"/>
<path d="M0 0 C1.1055189 0.93590504 2.20935453 1.87379858 3.3125 2.8125 C3.92738281 3.33457031 4.54226563 3.85664063 5.17578125 4.39453125 C8.51952278 7.3373102 8.51952278 7.3373102 10 9 C10 9.66 10 10.32 10 11 C6.45566346 9.58226538 5.66193881 8.32387762 4 5 C1.9664052 3.73195434 1.9664052 3.73195434 0 3 C0 2.01 0 1.02 0 0 Z " fill="#161614" transform="translate(706,165)"/>
<path d="M0 0 C4 0 4 0 5.42578125 1.39453125 C5.94527344 1.92433594 6.46476562 2.45414062 7 3 C9.49018012 3.99988926 9.49018012 3.99988926 12.1875 4.6875 C13.08855469 4.93886719 13.98960937 5.19023437 14.91796875 5.44921875 C15.94857422 5.72185547 15.94857422 5.72185547 17 6 C17 6.33 17 6.66 17 7 C10.19775182 6.82679461 5.34589067 5.31167204 0 1 C0 0.67 0 0.34 0 0 Z " fill="#030303" transform="translate(332,387)"/>
<path d="M0 0 C0.66 0 1.32 0 2 0 C0.52307692 7.50769231 0.52307692 7.50769231 -2.125 10 C-2.74375 10.33 -3.3625 10.66 -4 11 C-4 7.80389448 -3.45328458 6.58282374 -2 3.8125 C-1.62875 3.09707031 -1.2575 2.38164062 -0.875 1.64453125 C-0.441875 0.83048828 -0.441875 0.83048828 0 0 Z " fill="#070808" transform="translate(439,302)"/>
<path d="M0 0 C0.495 0.268125 0.99 0.53625 1.5 0.8125 C4.9236946 2.43875493 8.44132285 3.69515171 12 5 C11.67 5.66 11.34 6.32 11 7 C7.98342209 6.85969405 5.76158727 6.70648535 3.48828125 4.59765625 C2.26743934 3.11095765 1.12753478 1.55865102 0 0 Z " fill="#070707" transform="translate(612,552)"/>
<path d="M0 0 C0 0.66 0 1.32 0 2 C-3.14930893 3.04976964 -5.38814456 3.10131595 -8.6875 3.0625 C-9.68136719 3.05347656 -10.67523437 3.04445313 -11.69921875 3.03515625 C-12.83810547 3.01775391 -12.83810547 3.01775391 -14 3 C-14 2.67 -14 2.34 -14 2 C-9.07262981 0.02905192 -5.21979128 -0.1799928 0 0 Z " fill="#F8F6F2" transform="translate(621,320)"/>
<path d="M0 0 C0.33 0.66 0.66 1.32 1 2 C0.22265625 3.7265625 0.22265625 3.7265625 -0.9375 5.625 C-1.618125 6.73875 -2.29875 7.8525 -3 9 C-3.99 9 -4.98 9 -6 9 C-4.02 6.03 -2.04 3.06 0 0 Z " fill="#040505" transform="translate(541,303)"/>
<path d="M0 0 C0.66 0 1.32 0 2 0 C1.49477778 4.37859255 -1.17827222 6.81651224 -4 10 C-4 5.75354935 -2.18249194 3.61475228 0 0 Z " fill="#F4F2ED" transform="translate(697,374)"/>
<path d="M0 0 C4.12751449 0.60698743 7.3321148 2.03810791 11 4 C8 5 8 5 5.95703125 4.22265625 C5.24933594 3.83980469 4.54164063 3.45695313 3.8125 3.0625 C3.09707031 2.68222656 2.38164062 2.30195312 1.64453125 1.91015625 C1.10183594 1.60980469 0.55914062 1.30945313 0 1 C0 0.67 0 0.34 0 0 Z " fill="#F8F7F4" transform="translate(427,737)"/>
<path d="M0 0 C2 0 2 0 3.5625 1.125 C5.49026016 3.63946978 5.65505107 5.89545967 6 9 C5.34 9 4.68 9 4 9 C2.68 6.03 1.36 3.06 0 0 Z " fill="#030403" transform="translate(415,676)"/>
<path d="M0 0 C0.66 0.33 1.32 0.66 2 1 C-0.31 3.64 -2.62 6.28 -5 9 C-5.66 8.67 -6.32 8.34 -7 8 C-4.69 5.36 -2.38 2.72 0 0 Z " fill="#F4F3F0" transform="translate(621,660)"/>
<path d="M0 0 C0.66 0.33 1.32 0.66 2 1 C0.02 3.97 -1.96 6.94 -4 10 C-4.33 9.01 -4.66 8.02 -5 7 C-4.00390625 5.17578125 -4.00390625 5.17578125 -2.5625 3.3125 C-2.08941406 2.68988281 -1.61632812 2.06726563 -1.12890625 1.42578125 C-0.75636719 0.95527344 -0.38382813 0.48476563 0 0 Z " fill="#F4F3EE" transform="translate(242,639)"/>
<path d="M0 0 C4.18199633 2.09099816 4.99659367 2.99318733 7 7 C7 7.66 7 8.32 7 9 C6.34 9 5.68 9 5 9 C3.35 6.03 1.7 3.06 0 0 Z " fill="#050605" transform="translate(744,579)"/>
<path d="M0 0 C0.66 0 1.32 0 2 0 C0.7508258 3.45925163 -0.67527795 6.14693203 -3 9 C-3.66 8.67 -4.32 8.34 -5 8 C-4.21718695 6.66144944 -3.42348123 5.32926356 -2.625 4 C-2.18414062 3.2575 -1.74328125 2.515 -1.2890625 1.75 C-0.86367188 1.1725 -0.43828125 0.595 0 0 Z " fill="#030404" transform="translate(323,563)"/>
<path d="M0 0 C3.34249629 0.59687434 5.46436342 1.73603877 8 4 C8 4.66 8 5.32 8 6 C4.74456771 5.65120368 3.98126893 4.97866739 1.75 2.4375 C1.1725 1.633125 0.595 0.82875 0 0 Z " fill="#141412" transform="translate(379,498)"/>
<path d="M0 0 C0 0.66 0 1.32 0 2 C-1.28650706 2.69710731 -2.57940665 3.38242876 -3.875 4.0625 C-4.95394531 4.63677734 -4.95394531 4.63677734 -6.0546875 5.22265625 C-6.69664062 5.47917969 -7.33859375 5.73570312 -8 6 C-8.66 5.67 -9.32 5.34 -10 5 C-4.03225806 0 -4.03225806 0 0 0 Z " fill="#020302" transform="translate(329,155)"/>
<path d="M0 0 C0.33 0.99 0.66 1.98 1 3 C-0.40445835 5.2636564 -2.1967913 7.0208685 -4 9 C-4.66 8.67 -5.32 8.34 -6 8 C-4.26440562 4.942048 -2.61527381 2.36620011 0 0 Z " fill="#060606" transform="translate(789,804)"/>
<path d="M0 0 C0.99 0 1.98 0 3 0 C4.32 2.31 5.64 4.62 7 7 C6.01 7 5.02 7 4 7 C0 2.65714286 0 2.65714286 0 0 Z " fill="#080808" transform="translate(397,395)"/>
<path d="M0 0 C-0.33 0.99 -0.66 1.98 -1 3 C-2.84765625 3.73046875 -2.84765625 3.73046875 -5.0625 4.1875 C-5.79597656 4.34605469 -6.52945313 4.50460937 -7.28515625 4.66796875 C-8.13400391 4.83232422 -8.13400391 4.83232422 -9 5 C-6.45523312 2.20075644 -3.92372883 0 0 0 Z " fill="#030303" transform="translate(628,319)"/>
<path d="M0 0 C0.33 0.66 0.66 1.32 1 2 C-0.98 4.97 -0.98 4.97 -3 8 C-3.66 7.67 -4.32 7.34 -5 7 C-2.25 1.125 -2.25 1.125 0 0 Z " fill="#050505" transform="translate(267,597)"/>
<path d="M0 0 C0.33 0.99 0.66 1.98 1 3 C-0.65 4.32 -2.3 5.64 -4 7 C-4.33 6.01 -4.66 5.02 -5 4 C-3.35 2.68 -1.7 1.36 0 0 Z " fill="#1B1A19" transform="translate(309,533)"/>
<path d="M0 0 C0.66 0.33 1.32 0.66 2 1 C0.9375 2.5 0.9375 2.5 -1 4 C-4.6875 4.1875 -4.6875 4.1875 -8 4 C-6.66666667 3.33333333 -5.33333333 2.66666667 -4 2 C-3.29875 1.608125 -2.5975 1.21625 -1.875 0.8125 C-1.25625 0.544375 -0.6375 0.27625 0 0 Z " fill="#171615" transform="translate(525,319)"/>
</svg>
