<?xml version="1.0" encoding="UTF-8"?>
<svg version="1.1" xmlns="http://www.w3.org/2000/svg" width="1024" height="1024">
<path d="M0 0 C337.92 0 675.84 0 1024 0 C1024 337.92 1024 675.84 1024 1024 C686.08 1024 348.16 1024 0 1024 C0 686.08 0 348.16 0 0 Z " fill="#FBFBFB" transform="translate(0,0)"/>
<path d="M0 0 C1.74901347 -0.00576172 1.74901347 -0.00576172 3.53336054 -0.01163983 C5.44860117 -0.01034011 5.44860117 -0.01034011 7.40253353 -0.00901413 C8.77598066 -0.01159883 10.14942705 -0.01461229 11.52287239 -0.01801753 C15.29653772 -0.02607866 19.07018401 -0.02787661 22.84385693 -0.028615 C26.91425309 -0.03046714 30.98463941 -0.03801536 35.05502987 -0.04475021 C43.95608073 -0.05832851 52.85712708 -0.06435768 61.75818658 -0.06876087 C67.31812304 -0.07152456 72.87805776 -0.07576219 78.43799305 -0.08026505 C93.83718316 -0.09245784 109.23637188 -0.10275662 124.63556671 -0.10614014 C125.62105452 -0.1063597 126.60654233 -0.10657927 127.6218934 -0.10680549 C128.60972002 -0.10702377 129.59754663 -0.10724204 130.61530739 -0.10746694 C132.61696883 -0.1079104 134.61863027 -0.10835696 136.62029171 -0.10880661 C137.61318181 -0.10902804 138.60607191 -0.10924947 139.62904959 -0.10947761 C155.70936372 -0.11342373 171.78963247 -0.13087202 187.86992908 -0.15416613 C204.38640837 -0.17789857 220.90286492 -0.19034288 237.41936153 -0.19150805 C246.68983489 -0.19242383 255.96024916 -0.19815157 265.23070621 -0.21632767 C273.12660537 -0.2317543 281.02242718 -0.23683407 288.91833854 -0.22858956 C292.94412294 -0.22469191 296.96975169 -0.22556914 300.99551678 -0.23964691 C304.68762955 -0.25243934 308.37947058 -0.25114191 312.07158326 -0.2390562 C314.02593088 -0.23619213 315.98028342 -0.24799446 317.93459326 -0.26047826 C328.77365914 -0.20016417 338.66294176 1.76820397 348.32707882 6.75642776 C349.00448116 7.10197708 349.68188351 7.4475264 350.37981319 7.80354691 C356.50948072 11.06340227 361.39815426 15.11939095 366.20207882 20.13142776 C366.89559444 20.79400589 367.58911007 21.45658401 368.30364132 22.13924026 C372.667256 26.57024668 375.68353544 31.39391112 378.51457882 36.88142776 C378.84022823 37.50025833 379.16587765 38.1190889 379.50139523 38.75667191 C385.0487395 50.10954418 385.64655737 62.11180678 385.60613155 74.51570511 C385.61184828 76.11888475 385.61881752 77.72206033 385.62692928 79.32522964 C385.64473271 83.64150472 385.64371662 87.95757509 385.6379869 92.27387571 C385.63487616 95.89425198 385.64100834 99.51458998 385.64702564 103.13496077 C385.66102738 111.68459733 385.65954617 120.23413387 385.64812374 128.78377151 C385.63664855 137.56628323 385.65071808 146.34848935 385.67752022 155.13096082 C385.69976334 162.70678792 385.70629524 170.2825197 385.7004438 177.8583771 C385.69709333 182.36749195 385.6993608 186.87641106 385.71669483 191.38549805 C385.73229996 195.62928323 385.72806026 199.87261998 385.70938969 204.11638832 C385.70574089 205.66137807 385.70870198 207.20640207 385.71927547 208.75135994 C385.8518022 229.74053595 379.5327482 247.0587358 364.99504757 262.47127151 C352.96462616 274.14257587 336.61763691 281.36036074 319.74834263 281.37065351 C315.8577309 281.28235761 311.97533511 281.09839522 308.08904171 280.89973831 C306.33380226 280.82802827 304.57844946 280.7590498 302.82300472 280.69255447 C300.03065976 280.5863113 297.23850528 280.47818334 294.44656479 280.3617481 C287.49376937 280.07277757 280.54202968 279.87018213 273.58499813 279.71609879 C272.56466978 279.69343545 271.54434142 279.67077212 270.49309403 279.64742202 C266.28919099 279.55573143 262.08523289 279.4669123 257.88123429 279.37971818 C246.07447036 279.1316705 234.28315016 278.80424536 222.48747921 278.22737503 C210.02964836 277.63095471 197.58506023 277.27129519 185.11223507 277.26814651 C184.10792336 277.26757043 183.10361165 277.26699435 182.06886625 277.26640081 C155.46158456 277.37845098 135.67132595 280.69521843 116.28983212 299.89505386 C107.51545055 308.96332254 99.70630231 318.83179495 92.66312981 329.2934885 C92.18098298 329.90000846 91.69883615 330.50652842 91.20207882 331.13142776 C90.54207882 331.13142776 89.88207882 331.13142776 89.20207882 331.13142776 C89.20207882 331.79142776 89.20207882 332.45142776 89.20207882 333.13142776 C87.74870968 334.55257034 87.74870968 334.55257034 85.72942257 336.21345901 C82.66697784 338.81502097 79.80048007 341.49329812 77.01848507 344.39314651 C76.3178796 345.11953323 75.61727413 345.84591995 74.89543819 346.59431839 C73.47086036 348.08157243 72.05419872 349.57644829 70.64543819 351.07869339 C64.86786759 357.0260365 59.09617382 361.05105443 50.63957882 361.63142776 C44.20942246 361.28415451 39.3121978 358.6142303 34.88957882 354.00642776 C28.65403487 345.7807622 28.78516352 336.16619359 28.90911007 326.24861526 C28.91335491 324.95319809 28.91759975 323.65778091 28.92197323 322.32310867 C28.93331504 318.91343021 28.96268697 315.50414777 28.99608517 312.09462357 C29.02701915 308.60173776 29.04052789 305.10878667 29.05559444 301.61580276 C29.08756965 294.78751721 29.1386331 287.95949161 29.20207882 281.13142776 C28.26114376 281.15761185 27.3202087 281.18379593 26.35076046 281.21077347 C-8.66391368 282.05736686 -8.66391368 282.05736686 -21.79792118 276.13142776 C-22.81885868 275.67381058 -23.83979618 275.21619339 -24.89167118 274.74470901 C-42.38008088 265.97648163 -53.16394354 252.09060977 -59.93073368 234.12361526 C-62.08546108 227.28287877 -62.91850638 220.4939323 -62.9450922 213.32309341 C-62.94876889 212.67503312 -62.95244558 212.02697282 -62.95623368 211.35927433 C-62.96716708 209.20722666 -62.97109662 207.05522743 -62.97492313 204.90315628 C-62.98119581 203.3517479 -62.98784331 201.800341 -62.99483585 200.2489357 C-63.01579 195.16941227 -63.02623287 190.08988885 -63.03620243 185.01033401 C-63.04025377 183.25394997 -63.0443708 181.49756607 -63.04855251 179.74118233 C-63.06758834 171.48332242 -63.0818205 163.22547134 -63.09016448 154.96759373 C-63.09991911 145.47330336 -63.12619891 135.97924723 -63.16666538 126.48503929 C-63.19695593 119.12249905 -63.2116457 111.76002544 -63.2149455 104.39742416 C-63.21728198 100.01167655 -63.2260573 95.62617959 -63.25140667 91.2404995 C-63.27491912 87.10598841 -63.2788291 82.97188891 -63.26864529 78.83732796 C-63.26815533 77.33306243 -63.27431315 75.82877501 -63.28820133 74.32457352 C-63.47686192 52.65053642 -57.01028855 33.71492905 -41.71198368 17.98689651 C-30.49767991 7.40010794 -15.60731804 0.01933443 0 0 Z " fill="#FAFBFB" transform="translate(350.7979211807251,152.86857223510742)"/>
<path d="M0 0 C18.16731408 -0.11679583 36.33453074 -0.20496967 54.50213909 -0.25906086 C62.93767026 -0.28484381 71.37296816 -0.31999585 79.80834961 -0.37719727 C87.16054925 -0.42702972 94.51257997 -0.45929036 101.8649438 -0.47044247 C105.75814875 -0.47696161 109.65087044 -0.4922845 113.54392052 -0.52865028 C117.20888004 -0.56260781 120.87315761 -0.57305381 124.53825951 -0.56553841 C126.52336705 -0.56756822 128.50840044 -0.59446481 130.49331665 -0.62210083 C139.21392647 -0.57151273 139.21392647 -0.57151273 143.22608948 2.34552002 C145.1990512 5.29786025 146.88989598 8.21921847 148.453125 11.41015625 C149.07937901 12.66083136 149.70568276 13.91148157 150.33203125 15.16210938 C151.28721341 17.09945213 152.23836412 19.03869769 153.18701172 20.97924805 C161.29422398 37.48397264 170.85053207 50.59710747 187 60 C187.66902344 60.391875 188.33804688 60.78375 189.02734375 61.1875 C197.51885863 65.78333047 207.96678379 69.09435169 217.66290283 69.14717102 C218.57076538 69.15432632 219.47862793 69.16148163 220.41400146 69.16885376 C221.88984711 69.17288712 221.88984711 69.17288712 223.39550781 69.17700195 C224.96498169 69.18685875 224.96498169 69.18685875 226.56616211 69.19691467 C230.02848388 69.21661827 233.49076217 69.22830843 236.953125 69.23828125 C238.14090294 69.24235678 239.32868088 69.2464323 240.55245209 69.25063133 C246.84844284 69.27148701 253.14441188 69.28578674 259.44042969 69.29516602 C265.90583353 69.30618429 272.37088884 69.34053283 278.8361702 69.38033772 C283.83803898 69.40664805 288.83982686 69.41487096 293.84175873 69.41844749 C296.22248417 69.42328214 298.60320677 69.43480546 300.98386383 69.45348549 C317.35012224 69.5738456 333.68948863 69.29734222 348.4375 61.25 C349.09306885 60.90565918 349.7486377 60.56131836 350.42407227 60.20654297 C368.61801793 50.35102221 377.75778394 35.1127548 386.90625 17.37109375 C387.64609131 15.94180542 387.64609131 15.94180542 388.40087891 14.48364258 C389.37023536 12.60384883 390.33111373 10.71965459 391.28271484 8.83081055 C391.94327881 7.54170776 391.94327881 7.54170776 392.6171875 6.2265625 C393.00503418 5.45908691 393.39288086 4.69161133 393.79248047 3.90087891 C395 2 395 2 398 0 C400.55557537 -0.24609566 400.55557537 -0.24609566 403.67570496 -0.24050903 C404.85781052 -0.24325836 406.03991608 -0.24600769 407.25784302 -0.24884033 C408.55616058 -0.24164978 409.85447815 -0.23445923 411.19213867 -0.22705078 C412.5718739 -0.22648669 413.95160973 -0.22680319 415.3313446 -0.22793579 C419.07903376 -0.22851039 422.82659529 -0.21673881 426.57425475 -0.20278788 C430.49003311 -0.19029833 434.40581429 -0.18911142 438.3216095 -0.18673706 C445.73764141 -0.18051706 453.15361446 -0.16409922 460.56962043 -0.14403808 C469.01208458 -0.12169524 477.45455152 -0.11068972 485.89703786 -0.10064721 C503.26472597 -0.07973344 520.63235677 -0.04454737 538 0 C538.0701979 14.33440038 538.12284117 28.66877395 538.15543652 43.00331116 C538.17108189 49.65966578 538.19229982 56.31587408 538.22631836 62.97216797 C538.25895153 69.39771662 538.27686152 75.82315416 538.28463173 82.2487793 C538.29016808 84.69834135 538.3009792 87.14789744 538.31719017 89.59741211 C538.3390165 93.03252225 538.34196467 96.46717525 538.34057617 99.90234375 C538.35675491 101.4160984 538.35675491 101.4160984 538.3732605 102.96043396 C538.32805902 113.31786396 534.91406105 120.83666629 527.9375 128.5625 C520.94270859 135.40556058 511.6409605 138.15271317 502.11280632 138.13422108 C501.29655667 138.13657331 500.48030701 138.13892554 499.63932252 138.14134905 C496.88061876 138.14805157 494.12196196 138.14758045 491.36325073 138.14717102 C489.37479649 138.15046887 487.38634292 138.15419427 485.39789021 138.1583125 C479.91508263 138.16834966 474.43228599 138.17205205 468.94947052 138.17470181 C463.04336073 138.17859979 457.13725964 138.18817847 451.2311554 138.19691467 C437.63336761 138.21575843 424.0355783 138.22593736 410.43778088 138.23437535 C403.71909557 138.23858092 397.00041116 138.24380304 390.28172661 138.24905988 C367.28574498 138.26695109 344.2897631 138.28194723 321.29377556 138.28938007 C319.84984948 138.28985483 318.40592341 138.29033072 316.96199734 138.29080774 C316.24593478 138.29104411 315.52987223 138.29128049 314.79211081 138.29152403 C311.16414158 138.29272523 307.53617235 138.29394068 303.90820312 138.29516602 C302.82822783 138.29552624 302.82822783 138.29552624 301.72643485 138.29589374 C278.38299373 138.30378662 255.03960341 138.32721769 231.69618448 138.35972196 C207.02002208 138.39401929 182.34388942 138.41373114 157.66770279 138.41702431 C154.95879816 138.41744186 152.24989354 138.41792142 149.54098892 138.41844749 C148.54046586 138.41863228 148.54046586 138.41863228 147.51973021 138.4188208 C137.44963121 138.42100857 127.37958533 138.43430855 117.30950546 138.45348549 C105.85396665 138.47516234 94.39852064 138.48325775 82.94296364 138.47351871 C77.09683603 138.46896528 71.25090001 138.47092094 65.40479851 138.49028015 C60.05291454 138.50784991 54.70136283 138.50696431 49.34947564 138.49138286 C47.41334399 138.48899738 45.4771897 138.49337882 43.54109274 138.50521151 C25.09317384 138.61097435 25.09317384 138.61097435 18 134 C16.96875 133.401875 15.9375 132.80375 14.875 132.1875 C7.41309622 126.50996452 1.98874879 120.36060153 0 111 C-0.08641682 109.43687122 -0.12202546 107.87050738 -0.12025452 106.30499268 C-0.12162918 105.36552292 -0.12300385 104.42605316 -0.12442017 103.45811462 C-0.12082489 102.43456375 -0.11722961 101.41101288 -0.11352539 100.35644531 C-0.11367142 99.27321487 -0.11381744 98.18998444 -0.1139679 97.07392883 C-0.113271 93.49197388 -0.10548895 89.91007087 -0.09765625 86.328125 C-0.09579128 83.84519479 -0.09436775 81.36226421 -0.09336853 78.8793335 C-0.08993995 73.01103191 -0.08205769 67.14274951 -0.07201904 61.27445579 C-0.05973974 53.93687978 -0.05437297 46.59930268 -0.04882812 39.26171875 C-0.03810176 26.17446969 -0.02122486 13.08723603 0 0 Z " fill="#FBFBFB" transform="translate(243,691)"/>
<path d="M0 0 C0.74851227 -0.0049649 1.49702454 -0.00992981 2.26821899 -0.01504517 C4.74034553 -0.02962896 7.21240786 -0.03646308 9.68457031 -0.04199219 C11.40846762 -0.04774751 13.13236492 -0.0535052 14.85626221 -0.05926514 C18.4709096 -0.0697649 22.08553482 -0.07561402 25.70019531 -0.07910156 C30.31795358 -0.08457885 34.93541589 -0.10859476 39.55308151 -0.13707352 C43.11514118 -0.15575625 46.67713042 -0.16090853 50.23923492 -0.16243744 C51.94078435 -0.16545266 53.64233287 -0.17344277 55.34383392 -0.18662262 C57.73205144 -0.20379874 60.11955721 -0.2017749 62.5078125 -0.1953125 C63.20212372 -0.20452728 63.89643494 -0.21374207 64.61178589 -0.22323608 C69.65546859 -0.18077477 74.05610864 0.82667429 78.51269531 3.16113281 C83.05890515 7.94048161 83.86274931 11.19328721 83.79785156 17.61816406 C83.27898475 22.24531877 80.85481052 24.9448409 77.51269531 27.97363281 C73.28446189 30.48414641 68.97283655 30.29977561 64.17382812 30.2746582 C63.07567528 30.27487724 63.07567528 30.27487724 61.95533752 30.27510071 C59.54213469 30.27440557 57.12900962 30.26663189 54.71582031 30.25878906 C53.04001915 30.25692346 51.36421743 30.25550023 49.68841553 30.25450134 C45.28255705 30.25068734 40.87673166 30.24086657 36.47088623 30.22979736 C31.97310839 30.21955924 27.4753252 30.21499858 22.97753906 30.20996094 C14.15590996 30.19924331 5.33430539 30.18218028 -3.48730469 30.16113281 C-3.79546616 30.94761703 -4.10362762 31.73410126 -4.42112732 32.54441833 C-5.35954145 34.84756405 -6.36186057 36.74469981 -7.70996094 38.82128906 C-8.15718506 39.51786621 -8.60440918 40.21444336 -9.06518555 40.93212891 C-9.55510986 41.6883252 -10.04503418 42.44452148 -10.54980469 43.22363281 C-15.79645476 51.42228532 -20.88886168 59.70726296 -25.92480469 68.03613281 C-35.16688656 83.3072651 -44.52786888 98.50016923 -54.04980469 113.59863281 C-54.53876221 114.37408447 -55.02771973 115.14953613 -55.53149414 115.94848633 C-55.99257568 116.67737061 -56.45365723 117.40625488 -56.92871094 118.15722656 C-57.32775635 118.78814209 -57.72680176 119.41905762 -58.13793945 120.0690918 C-59.89082617 122.78674808 -61.6916322 125.47160747 -63.48730469 128.16113281 C-62.81107622 128.15744564 -62.13484776 128.15375847 -61.43812752 128.14995956 C-44.95288276 128.06146462 -28.46771365 127.99535344 -11.98228645 127.95388412 C-4.00991386 127.93329472 3.96229977 127.90524383 11.93457031 127.859375 C18.88652378 127.81939582 25.83836208 127.79367369 32.79042733 127.78477883 C36.46854234 127.77958272 40.14632798 127.76744665 43.82433701 127.73821259 C47.93918972 127.7057743 52.05347672 127.70518047 56.16845703 127.70703125 C57.3761525 127.69265015 58.58384796 127.67826904 59.82814026 127.66345215 C70.34060855 127.71447878 79.62863008 130.40220958 87.31494141 137.92504883 C92.86429488 143.87922881 96.44765084 150.1318581 100.01269531 157.41113281 C101.13979941 159.63536483 102.26998199 161.85803967 103.40332031 164.07910156 C103.93892578 165.13274902 104.47453125 166.18639648 105.02636719 167.27197266 C112.14711136 181.11344547 119.5317028 190.66417021 134.51269531 196.16113281 C137.45346978 197.02436856 140.07892084 197.29198808 143.14041138 197.30830383 C144.06542953 197.31545914 144.99044769 197.32261444 145.9434967 197.32998657 C146.95133713 197.33267548 147.95917755 197.33536438 148.99755859 197.33813477 C150.0647261 197.34470596 151.13189362 197.35127716 152.23139954 197.35804749 C155.76526969 197.37776702 159.29909734 197.38944108 162.83300781 197.39941406 C164.64570475 197.40552735 164.64570475 197.40552735 166.49502182 197.41176414 C172.89316385 197.43262063 179.29128446 197.44692337 185.68945312 197.45629883 C192.28672848 197.46735328 198.88366565 197.5017438 205.48082161 197.54147053 C210.56304537 197.56766093 215.64518891 197.57599293 220.72747421 197.57958031 C223.15864212 197.58444111 225.58980657 197.59604054 228.02090836 197.6146183 C231.4313635 197.63905695 234.8409483 197.63803543 238.25146484 197.63110352 C239.24715988 197.64391357 240.24285492 197.65672363 241.26872253 197.66992188 C248.10635391 197.6195159 253.36064758 196.10568062 259.51269531 193.16113281 C260.475625 192.70351563 261.43855469 192.24589844 262.43066406 191.77441406 C263.17960937 191.34515625 263.92855469 190.91589844 264.70019531 190.47363281 C265.456875 190.05726563 266.21355469 189.64089844 266.99316406 189.21191406 C274.20622303 183.34081955 278.36541226 175.15547988 282.45019531 166.97363281 C283.49276529 164.93760472 284.53703396 162.90244556 285.58300781 160.86816406 C286.08348633 159.89057129 286.58396484 158.91297852 287.09960938 157.90576172 C294.8104049 142.92912673 300.95502633 133.68035581 317.51269531 128.16113281 C319.31418249 128.07051708 321.11888925 128.03917824 322.9226532 128.0408783 C324.60746292 128.0388163 324.60746292 128.0388163 326.3263092 128.03671265 C328.1756028 128.04210556 328.1756028 128.04210556 330.06225586 128.04760742 C332.00875031 128.04738838 332.00875031 128.04738838 333.99456787 128.04716492 C337.55420786 128.04687768 341.11381425 128.05276262 344.67344642 128.05973887 C348.39303909 128.06598455 352.11263251 128.06657718 355.83222961 128.06776428 C362.87637304 128.07087401 369.92050098 128.07908258 376.96463758 128.08911377 C384.98389947 128.10028602 393.00316209 128.10578817 401.02242982 128.11080921 C417.51919406 128.12126548 434.01594271 128.138858 450.51269531 128.16113281 C448.10139789 124.30244053 445.68999077 120.44381681 443.27856445 116.58520508 C442.59877785 115.49736977 441.91899124 114.40953445 441.21860504 113.28873444 C437.90225008 107.98222649 434.58474736 102.67647113 431.25878906 97.37597656 C424.69719219 86.91391712 418.20595175 76.41389163 411.81054688 65.84936523 C406.7078888 57.43665905 401.48726359 49.09970356 396.22167969 40.78808594 C395.62033203 39.83353516 395.01898437 38.87898437 394.39941406 37.89550781 C393.86533936 37.05213867 393.33126465 36.20876953 392.78100586 35.33984375 C391.51269531 33.16113281 391.51269531 33.16113281 390.51269531 30.16113281 C389.58863388 30.16779465 388.66457245 30.17445648 387.71250916 30.18132019 C378.98804395 30.24152542 370.26364889 30.28715506 361.5390234 30.31656933 C357.05400134 30.33220007 352.56915148 30.3533908 348.08422852 30.38745117 C343.75296405 30.42013734 339.42186485 30.43800531 335.09048653 30.44576454 C333.44113121 30.45129147 331.79178456 30.46208421 330.14249992 30.47832298 C327.82551672 30.50022081 325.50920933 30.50309466 323.19213867 30.50170898 C321.21690468 30.51170174 321.21690468 30.51170174 319.20176697 30.52189636 C313.84856056 29.99839291 309.92945964 28.65246368 306.13769531 24.66113281 C303.31944501 20.32536311 302.98518953 16.21559733 303.51269531 11.16113281 C305.22557742 6.47324495 307.35066088 3.90198476 311.51269531 1.16113281 C315.28476439 -0.17054161 319.184665 -0.00103835 323.13598633 -0.01586914 C323.89918686 -0.02244034 324.66238739 -0.02901154 325.44871521 -0.03578186 C327.97134511 -0.05546889 330.49391546 -0.06717015 333.01660156 -0.07714844 C333.88180861 -0.08122396 334.74701565 -0.08529949 335.63844109 -0.08949852 C340.2222558 -0.11034447 344.80604075 -0.12464987 349.38989258 -0.1340332 C354.10160459 -0.14506576 358.81284019 -0.17943319 363.5243845 -0.2192049 C367.16634436 -0.24548173 370.80819288 -0.25373504 374.45023918 -0.25731468 C376.18560931 -0.26215586 377.92097529 -0.27369854 379.65625191 -0.29235268 C392.9448315 -0.42627074 404.04898629 0.48335812 414.07519531 10.21191406 C418.01021884 14.97304029 420.70890477 20.2716031 423.57519531 25.71972656 C426.98175337 32.14780566 430.77803348 38.33467313 434.57519531 44.53613281 C435.30749038 45.73511714 436.03966721 46.9341737 436.77172852 48.13330078 C437.8896333 49.96364087 439.00799538 51.79369564 440.1275177 53.62304688 C442.73934264 57.89097124 445.33896497 62.16611614 447.93066406 66.44628906 C454.28731062 76.94233762 460.65804803 87.42781884 467.13769531 97.84863281 C472.00877716 105.70068714 476.84561237 113.57309385 481.63769531 121.47363281 C482.27787598 122.51801514 482.91805664 123.56239746 483.57763672 124.63842773 C484.17753418 125.63205322 484.77743164 126.62567871 485.39550781 127.64941406 C485.92547363 128.52122314 486.45543945 129.39303223 487.00146484 130.29125977 C491.28542621 138.4266339 491.95136213 144.86766131 491.91674805 153.98022461 C491.92704292 155.88186119 491.92704292 155.88186119 491.93754578 157.82191467 C491.9554057 161.28095535 491.95432159 164.73974132 491.94860339 168.19881415 C491.94549886 171.09838657 491.95161849 173.99791094 491.95764214 176.89747649 C491.97166437 183.74736594 491.97014739 190.59713064 491.95874023 197.44702148 C491.94728144 204.48278309 491.96130193 211.5181625 491.98813671 218.55387372 C492.01039456 224.61960787 492.01690794 230.68522295 492.0110603 236.75099498 C492.00771102 240.36252385 492.00996792 243.97380831 492.02731133 247.58530235 C492.04585233 251.62213129 492.03149057 255.65823285 492.0144043 259.69506836 C492.02407227 260.8700589 492.03374023 262.04504944 492.04370117 263.25564575 C491.89268206 280.40864874 484.89503352 295.01430779 473.40332031 307.44238281 C463.98248432 316.67353755 451.42339261 322.6495663 438.51269531 325.16113281 C437.64059164 325.33317065 436.76848797 325.50520849 435.86995691 325.68245959 C432.01848771 326.23159618 428.24712472 326.30177404 424.36682224 326.29256058 C423.55903888 326.29461321 422.75125551 326.29666584 421.91899386 326.29878068 C419.20709405 326.30444362 416.49524514 326.30299429 413.78334045 326.30157471 C411.82132215 326.30415876 409.85930436 326.30717203 407.89728731 326.31057811 C402.50124927 326.31864687 397.10522454 326.32043762 391.70918119 326.32117558 C385.89094586 326.32302638 380.07271743 326.33057392 374.25448608 326.33731079 C361.52903439 326.35089445 348.80358584 326.35691908 336.0781281 326.36132145 C328.1309822 326.3640842 320.18383751 326.36832165 312.23669243 326.37282562 C290.23041518 326.38501905 268.22413888 326.39535312 246.21785831 326.39870071 C244.79506396 326.39892235 243.37226961 326.39914413 241.94947525 326.39936607 C240.52328364 326.3995867 239.09709202 326.39980719 237.6709004 326.40002751 C234.80981576 326.40047006 231.94873112 326.40091718 229.08764648 326.40136719 C228.37826522 326.40147658 227.66888396 326.40158597 226.9380063 326.40169868 C203.94757364 326.40532754 180.95717255 326.42124112 157.96675198 326.44455755 C133.64740636 326.46917654 109.32807878 326.48287454 85.00872034 326.48406863 C71.75703511 326.48491895 58.50538441 326.4907235 45.25370979 326.50888824 C33.9675068 326.5243043 22.6813579 326.52940084 11.39514638 326.52115014 C5.63942329 326.51724881 -0.11619093 326.51814805 -5.87190056 326.53220749 C-11.14806531 326.54497733 -16.42403972 326.54372178 -21.70020432 326.53161678 C-23.60203076 326.52966511 -25.50387082 326.53271352 -27.40567815 326.54146114 C-49.96034849 326.63857909 -70.01309039 322.57361582 -87.09667969 306.74316406 C-97.20132033 296.07903828 -104.54145167 281.477804 -104.64793396 266.59141541 C-104.65797958 265.48280151 -104.66802521 264.37418762 -104.67837524 263.23197937 C-104.68420624 262.02516006 -104.69003723 260.81834076 -104.69604492 259.57495117 C-104.7058287 258.29627167 -104.71561249 257.01759216 -104.72569275 255.70016479 C-104.7569824 251.46713257 -104.77733745 247.23408129 -104.79589844 243.00097656 C-104.79919576 242.27881683 -104.80249308 241.55665709 -104.80589032 240.81261373 C-104.83667268 233.9914545 -104.86335719 227.17029054 -104.8803091 220.34908199 C-104.90218307 211.65201486 -104.9440991 202.95556749 -105.01374668 194.25874799 C-105.06115579 188.1285778 -105.0852652 181.99857378 -105.09250599 175.86822611 C-105.09743771 172.21455872 -105.112278 168.56159111 -105.15225029 164.90812492 C-105.19636053 160.82273433 -105.19218271 156.73869775 -105.18432617 152.65307617 C-105.20432678 151.46042648 -105.22432739 150.26777679 -105.24493408 149.03898621 C-105.13670527 136.44036566 -98.8212061 127.27987357 -92.11230469 117.03613281 C-90.86973966 115.11013205 -89.6289254 113.18300091 -88.38964844 111.25488281 C-87.74882324 110.2584375 -87.10799805 109.26199219 -86.44775391 108.23535156 C-71.64969066 85.03021925 -57.57207748 61.33088256 -43.42480469 37.72363281 C-42.19436224 35.67543993 -40.96389475 33.62726209 -39.73339844 31.57910156 C-37.81383502 28.38240259 -35.90685026 25.17945514 -34.02246094 21.96191406 C-27.8235485 11.52727644 -21.6553465 4.48833774 -9.80950928 0.61212158 C-6.54524395 -0.02182213 -3.3121232 0.00527113 0 0 Z M-75.48730469 158.16113281 C-75.580982 172.46096292 -75.65113157 186.76074505 -75.69455338 201.06081963 C-75.71539739 207.70149235 -75.743657 214.34186785 -75.7890625 220.98242188 C-75.83263322 227.39502103 -75.85646582 233.80742183 -75.86681366 240.22015762 C-75.87418481 242.66249843 -75.88857884 245.1048288 -75.91022491 247.54708481 C-75.93940715 250.97710083 -75.94325437 254.40630491 -75.94140625 257.83642578 C-75.95578735 258.838405 -75.97016846 259.84038422 -75.98498535 260.87272644 C-75.92786899 270.71698323 -72.97400102 278.34068838 -66.20605469 285.48144531 C-58.73761077 292.78015186 -51.0206256 296.31447985 -40.60849094 296.2981472 C-39.79314008 296.30079903 -38.97778921 296.30345086 -38.13773075 296.30618304 C-35.38205665 296.31389495 -32.62642698 296.31443594 -29.8707428 296.31503296 C-27.88442649 296.31904635 -25.898111 296.32348437 -23.91179651 296.32831252 C-18.43478237 296.34029789 -12.95777704 296.34593103 -7.48075235 296.35049367 C-1.58071905 296.35644243 4.31930366 296.36805418 10.21932983 296.37878418 C23.80434662 296.40216595 37.3893676 296.41671877 50.97439814 296.4290136 C55.67513059 296.43326821 60.37586264 296.43783394 65.07659459 296.44259691 C90.0722206 296.46785955 115.06784727 296.48990704 140.06348324 296.50232506 C145.85555461 296.50524638 151.64762595 296.5082139 157.43969727 296.51123047 C158.15928852 296.51160138 158.87887977 296.51197229 159.62027682 296.51235444 C182.94276127 296.52450562 206.26517019 296.55544181 229.58761917 296.59715199 C253.56592231 296.63995684 277.54418557 296.66656834 301.52252795 296.67179977 C304.91071023 296.6725402 308.29889245 296.67345088 311.68707466 296.67445755 C312.35388777 296.67464816 313.02070087 296.67483878 313.70772043 296.67503517 C323.76718579 296.67832887 333.82656597 296.69560661 343.88599968 296.72034836 C355.33377962 296.74834324 366.78141602 296.75935062 378.22922754 296.7481529 C384.06969323 296.74296473 389.90985831 296.7458638 395.75028038 296.77061844 C401.10053046 296.79310601 406.45026388 296.79237439 411.80052299 296.77341457 C413.73267343 296.7706139 415.66485887 296.77621673 417.59695303 296.7912275 C431.25834458 296.89084713 442.53350685 295.78921616 452.89941406 285.85253906 C458.88235374 279.57986865 462.64287084 273.23629686 462.63294983 264.46612549 C462.63432449 263.52665573 462.63569916 262.58718597 462.63711548 261.61924744 C462.6335202 260.59569656 462.62992493 259.57214569 462.6262207 258.51757812 C462.62643974 256.89273247 462.62643974 256.89273247 462.62666321 255.23506165 C462.62596631 251.65310669 462.61818426 248.07120368 462.61035156 244.48925781 C462.60848659 242.0063276 462.60706306 239.52339702 462.60606384 237.04046631 C462.60263526 231.17216472 462.59475301 225.30388232 462.58471435 219.4355886 C462.57243505 212.0980126 462.56706828 204.7604355 462.56152344 197.42285156 C462.55079707 184.3356025 462.53392017 171.24836884 462.51269531 158.16113281 C444.32808682 158.0677273 426.14354051 157.99717224 407.95874405 157.95388412 C399.51538325 157.93325123 391.07217143 157.90511686 382.62890625 157.859375 C375.27049084 157.81952935 367.91218331 157.79370529 360.55366302 157.78477883 C356.65665442 157.77956018 352.75995449 157.76727975 348.86304474 157.73821259 C345.1956908 157.7110791 341.5287729 157.70268345 337.86132812 157.70870209 C335.87248172 157.70707551 333.88368289 157.68554187 331.8949585 157.66345215 C330.71147827 157.66895081 329.52799805 157.67444946 328.30865479 157.68011475 C327.27993382 157.67642757 326.25121284 157.6727404 325.19131851 157.6689415 C321.7888315 158.29414125 320.66440784 159.50994315 318.51269531 162.16113281 C317.37287832 164.10304325 316.30918206 166.0907195 315.30566406 168.10644531 C314.42491211 169.84667969 314.42491211 169.84667969 313.52636719 171.62207031 C312.61657897 173.4440813 311.70950093 175.26742541 310.80249023 177.09082031 C300.46633818 197.79137299 286.88410314 215.07870974 264.51269531 223.16113281 C250.51101613 227.57446068 236.89969223 227.7506784 222.31738281 227.69238281 C219.91138554 227.69508473 217.50538934 227.69897293 215.09939575 227.70397949 C210.08519984 227.70983933 205.07129113 227.7014241 200.05712891 227.68261719 C193.66802604 227.65980551 187.27959472 227.67298801 180.89051628 227.69690704 C175.93160037 227.71143928 170.97284074 227.7067255 166.01391983 227.69639587 C163.65947513 227.69375037 161.30501568 227.69692059 158.95058823 227.70631409 C142.7081752 227.75692695 128.16009814 226.92044472 113.51269531 219.16113281 C112.71605469 218.7421875 111.91941406 218.32324219 111.09863281 217.89160156 C93.98075184 208.27273037 84.5708854 193.19155384 76.20019531 176.09863281 C75.16711071 173.99550735 74.13043334 171.89460022 73.08125305 169.79945374 C72.43611366 168.51092727 71.79994641 167.21785444 71.17448425 165.91966248 C69.40345092 162.37928143 67.92060158 160.18272781 64.51269531 158.16113281 C61.77003366 157.71984752 61.77003366 157.71984752 58.71673584 157.80036926 C57.53325562 157.79624527 56.34977539 157.79212128 55.13043213 157.78787231 C53.83570984 157.79865814 52.54098755 157.80944397 51.20703125 157.82055664 C49.82714863 157.82140304 48.44726465 157.82092752 47.06738281 157.81922913 C43.323819 157.81836824 39.58054344 157.83600886 35.83704662 157.856951 C31.9239517 157.87570238 28.0108502 157.87746702 24.09771729 157.88102722 C16.68876639 157.89035222 9.27994827 157.91497212 1.87105584 157.94507569 C-6.56416603 157.97860557 -14.99939424 157.99510215 -23.43466616 158.010162 C-40.78562247 158.04152131 -58.13644954 158.09429062 -75.48730469 158.16113281 Z " fill="#034C85" transform="translate(318.4873046875,532.8388671875)"/>
<path d="M0 0 C1.74901347 -0.00576172 1.74901347 -0.00576172 3.53336054 -0.01163983 C5.44860117 -0.01034011 5.44860117 -0.01034011 7.40253353 -0.00901413 C8.77598066 -0.01159883 10.14942705 -0.01461229 11.52287239 -0.01801753 C15.29653772 -0.02607866 19.07018401 -0.02787661 22.84385693 -0.028615 C26.91425309 -0.03046714 30.98463941 -0.03801536 35.05502987 -0.04475021 C43.95608073 -0.05832851 52.85712708 -0.06435768 61.75818658 -0.06876087 C67.31812304 -0.07152456 72.87805776 -0.07576219 78.43799305 -0.08026505 C93.83718316 -0.09245784 109.23637188 -0.10275662 124.63556671 -0.10614014 C125.62105452 -0.1063597 126.60654233 -0.10657927 127.6218934 -0.10680549 C128.60972002 -0.10702377 129.59754663 -0.10724204 130.61530739 -0.10746694 C132.61696883 -0.1079104 134.61863027 -0.10835696 136.62029171 -0.10880661 C137.61318181 -0.10902804 138.60607191 -0.10924947 139.62904959 -0.10947761 C155.70936372 -0.11342373 171.78963247 -0.13087202 187.86992908 -0.15416613 C204.38640837 -0.17789857 220.90286492 -0.19034288 237.41936153 -0.19150805 C246.68983489 -0.19242383 255.96024916 -0.19815157 265.23070621 -0.21632767 C273.12660537 -0.2317543 281.02242718 -0.23683407 288.91833854 -0.22858956 C292.94412294 -0.22469191 296.96975169 -0.22556914 300.99551678 -0.23964691 C304.68762955 -0.25243934 308.37947058 -0.25114191 312.07158326 -0.2390562 C314.02593088 -0.23619213 315.98028342 -0.24799446 317.93459326 -0.26047826 C328.77365914 -0.20016417 338.66294176 1.76820397 348.32707882 6.75642776 C349.00448116 7.10197708 349.68188351 7.4475264 350.37981319 7.80354691 C356.50948072 11.06340227 361.39815426 15.11939095 366.20207882 20.13142776 C366.89559444 20.79400589 367.58911007 21.45658401 368.30364132 22.13924026 C372.667256 26.57024668 375.68353544 31.39391112 378.51457882 36.88142776 C378.84022823 37.50025833 379.16587765 38.1190889 379.50139523 38.75667191 C385.0487395 50.10954418 385.64655737 62.11180678 385.60613155 74.51570511 C385.61184828 76.11888475 385.61881752 77.72206033 385.62692928 79.32522964 C385.64473271 83.64150472 385.64371662 87.95757509 385.6379869 92.27387571 C385.63487616 95.89425198 385.64100834 99.51458998 385.64702564 103.13496077 C385.66102738 111.68459733 385.65954617 120.23413387 385.64812374 128.78377151 C385.63664855 137.56628323 385.65071808 146.34848935 385.67752022 155.13096082 C385.69976334 162.70678792 385.70629524 170.2825197 385.7004438 177.8583771 C385.69709333 182.36749195 385.6993608 186.87641106 385.71669483 191.38549805 C385.73229996 195.62928323 385.72806026 199.87261998 385.70938969 204.11638832 C385.70574089 205.66137807 385.70870198 207.20640207 385.71927547 208.75135994 C385.8518022 229.74053595 379.5327482 247.0587358 364.99504757 262.47127151 C352.96462616 274.14257587 336.61763691 281.36036074 319.74834263 281.37065351 C315.8577309 281.28235761 311.97533511 281.09839522 308.08904171 280.89973831 C306.33380226 280.82802827 304.57844946 280.7590498 302.82300472 280.69255447 C300.03065976 280.5863113 297.23850528 280.47818334 294.44656479 280.3617481 C287.49376937 280.07277757 280.54202968 279.87018213 273.58499813 279.71609879 C272.56466978 279.69343545 271.54434142 279.67077212 270.49309403 279.64742202 C266.28919099 279.55573143 262.08523289 279.4669123 257.88123429 279.37971818 C246.07447036 279.1316705 234.28315016 278.80424536 222.48747921 278.22737503 C210.02964836 277.63095471 197.58506023 277.27129519 185.11223507 277.26814651 C184.10792336 277.26757043 183.10361165 277.26699435 182.06886625 277.26640081 C155.46158456 277.37845098 135.67132595 280.69521843 116.28983212 299.89505386 C107.51545055 308.96332254 99.70630231 318.83179495 92.66312981 329.2934885 C92.18098298 329.90000846 91.69883615 330.50652842 91.20207882 331.13142776 C90.54207882 331.13142776 89.88207882 331.13142776 89.20207882 331.13142776 C89.20207882 331.79142776 89.20207882 332.45142776 89.20207882 333.13142776 C87.74870968 334.55257034 87.74870968 334.55257034 85.72942257 336.21345901 C82.66697784 338.81502097 79.80048007 341.49329812 77.01848507 344.39314651 C76.3178796 345.11953323 75.61727413 345.84591995 74.89543819 346.59431839 C73.47086036 348.08157243 72.05419872 349.57644829 70.64543819 351.07869339 C64.86786759 357.0260365 59.09617382 361.05105443 50.63957882 361.63142776 C44.20942246 361.28415451 39.3121978 358.6142303 34.88957882 354.00642776 C28.65403487 345.7807622 28.78516352 336.16619359 28.90911007 326.24861526 C28.91335491 324.95319809 28.91759975 323.65778091 28.92197323 322.32310867 C28.93331504 318.91343021 28.96268697 315.50414777 28.99608517 312.09462357 C29.02701915 308.60173776 29.04052789 305.10878667 29.05559444 301.61580276 C29.08756965 294.78751721 29.1386331 287.95949161 29.20207882 281.13142776 C28.26114376 281.15761185 27.3202087 281.18379593 26.35076046 281.21077347 C-8.66391368 282.05736686 -8.66391368 282.05736686 -21.79792118 276.13142776 C-22.81885868 275.67381058 -23.83979618 275.21619339 -24.89167118 274.74470901 C-42.38008088 265.97648163 -53.16394354 252.09060977 -59.93073368 234.12361526 C-62.08546108 227.28287877 -62.91850638 220.4939323 -62.9450922 213.32309341 C-62.94876889 212.67503312 -62.95244558 212.02697282 -62.95623368 211.35927433 C-62.96716708 209.20722666 -62.97109662 207.05522743 -62.97492313 204.90315628 C-62.98119581 203.3517479 -62.98784331 201.800341 -62.99483585 200.2489357 C-63.01579 195.16941227 -63.02623287 190.08988885 -63.03620243 185.01033401 C-63.04025377 183.25394997 -63.0443708 181.49756607 -63.04855251 179.74118233 C-63.06758834 171.48332242 -63.0818205 163.22547134 -63.09016448 154.96759373 C-63.09991911 145.47330336 -63.12619891 135.97924723 -63.16666538 126.48503929 C-63.19695593 119.12249905 -63.2116457 111.76002544 -63.2149455 104.39742416 C-63.21728198 100.01167655 -63.2260573 95.62617959 -63.25140667 91.2404995 C-63.27491912 87.10598841 -63.2788291 82.97188891 -63.26864529 78.83732796 C-63.26815533 77.33306243 -63.27431315 75.82877501 -63.28820133 74.32457352 C-63.47686192 52.65053642 -57.01028855 33.71492905 -41.71198368 17.98689651 C-30.49767991 7.40010794 -15.60731804 0.01933443 0 0 Z M-27.79792118 46.13142776 C-31.32922962 51.94896324 -32.9198079 56.91102588 -32.95855045 63.75140762 C-32.96363827 64.42745735 -32.96872609 65.10350708 -32.97396809 65.80004317 C-32.98969225 68.07057754 -32.9982177 70.34108007 -33.00666142 72.61165237 C-33.01620031 74.23792599 -33.02609149 75.86419758 -33.03630924 77.49046707 C-33.06770396 82.8382107 -33.08796884 88.1859699 -33.10651493 93.53377151 C-33.10981225 94.44448009 -33.11310957 95.35518866 -33.11650681 96.29349446 C-33.14729913 104.88843684 -33.17399874 113.48338276 -33.1909256 122.07836437 C-33.21280344 133.0577063 -33.25470714 144.03655739 -33.32436317 155.01570314 C-33.371711 162.74242367 -33.39587389 170.46901232 -33.40312248 178.19587332 C-33.40806439 182.80636734 -33.42300423 187.41630829 -33.46286678 192.02664375 C-33.4999354 196.37133253 -33.50807727 200.71515708 -33.49486065 205.05997467 C-33.49491427 206.64656609 -33.50507678 208.23319776 -33.52661228 209.81964302 C-33.6812765 221.86658085 -31.37211351 231.0783115 -23.29792118 240.44392776 C-15.75520418 247.41765837 -5.40410126 252.20422539 4.89714718 252.28914261 C5.79835796 252.29940475 6.69956875 252.3096669 7.62808895 252.32024002 C8.58965405 252.32754135 9.55121914 252.33484268 10.54192257 252.34236526 C12.59466502 252.37042625 14.6473993 252.39909065 16.70012569 252.42830276 C19.92367545 252.46958307 23.14707122 252.5064889 26.37077999 252.53279495 C29.49064414 252.560436 32.60982334 252.60629592 35.72942257 252.65486526 C37.16873386 252.65974457 37.16873386 252.65974457 38.63712215 252.66472244 C43.8395542 252.76002259 47.88366579 252.93039964 52.20207882 256.13142776 C58.11221133 262.31473286 57.93570146 269.23009509 57.90911007 277.38142776 C57.92423138 278.63528275 57.93935268 279.88913773 57.95493221 281.18098831 C57.99047364 284.48880372 58.0049572 287.79580401 58.00896358 291.10377884 C58.01833968 294.48946475 58.05578061 297.87483285 58.09075069 301.26033401 C58.15353083 307.8840392 58.18852315 314.50744871 58.20207882 321.13142776 C62.74281116 317.33679479 67.05124803 313.41341666 71.19402218 309.18953323 C72.02484058 308.34929611 72.02484058 308.34929611 72.8724432 307.4920845 C74.06236892 306.28842149 75.25120366 305.08367913 76.43903065 303.87794495 C78.32432723 301.96574824 80.21419138 300.05817953 82.10553646 298.15196609 C87.47857075 292.73643395 92.84882254 287.31823939 98.20281124 281.88386917 C101.48952006 278.54848605 104.78604381 275.22307934 108.08907413 271.903862 C109.33938374 270.6436984 110.58604024 269.37989868 111.82883167 268.11231995 C113.57022781 266.33695249 115.32390287 264.57460332 117.08074093 262.81453323 C117.58332424 262.29599777 118.08590755 261.77746231 118.60372066 261.24321365 C123.85364301 256.03681852 129.56088379 252.71178134 137.12550282 252.6029157 C137.82940388 252.61272248 138.53330494 252.62252926 139.25853634 252.63263321 C140.41377635 252.62455638 140.41377635 252.62455638 141.59235454 252.61631638 C144.1517222 252.60312979 146.7101161 252.6181438 149.26946163 252.63313675 C151.11322117 252.62931043 152.95697773 252.62368873 154.80072689 252.61641312 C158.76162666 252.60448524 162.72226122 252.60493453 166.68316555 252.6150074 C172.95452002 252.6306079 179.22560384 252.6168615 185.49693966 252.59897232 C197.68397615 252.56817942 209.8709295 252.56664945 222.0579977 252.56862259 C237.55575261 252.57001606 253.05344314 252.5595659 268.55115104 252.52004486 C274.77657804 252.50516325 281.00176385 252.50534294 287.22719431 252.51752269 C291.11191846 252.52225539 294.99655157 252.51468004 298.88126087 252.50397873 C300.6726167 252.50158589 302.46398819 252.50426049 304.25532627 252.51258659 C320.13006123 252.58191501 333.77097048 251.06955263 346.01457882 239.88142776 C355.84005387 229.38392729 356.50330048 216.64459637 356.49260616 203.01741409 C356.49859821 201.49054513 356.50540531 199.96367919 356.51296139 198.43681717 C356.53056234 194.30636812 356.53531434 190.17600205 356.53659296 186.04551911 C356.53801877 183.45901592 356.54229654 180.87253354 356.54758739 178.28603554 C356.56606999 169.24547243 356.57426046 160.20496813 356.57268429 151.16438675 C356.57148422 142.76537244 356.59256468 134.36661565 356.62417161 125.96766645 C356.65041284 118.73422862 356.66104827 111.50087448 356.65977347 104.26738948 C356.65926602 99.9572195 356.66482754 95.64727844 356.68612957 91.3371563 C356.70564418 87.27813076 356.70554728 83.21954937 356.69109631 79.1605072 C356.68902319 77.68078899 356.69361849 76.20104199 356.70581722 74.7213726 C356.79115098 63.64251806 356.20828541 51.11017665 348.07707882 42.69392776 C338.59051055 33.11404899 327.93577497 28.82409456 314.5853678 28.72553545 C312.73910884 28.73455052 312.73910884 28.73455052 310.85555172 28.74374771 C309.5150592 28.73956904 308.17457022 28.73408861 306.83408773 28.7274279 C303.17007591 28.71302424 299.50629 28.71720198 295.84226608 28.72459471 C291.88305543 28.72933674 287.92389292 28.71680738 283.96469784 28.7065773 C276.21578644 28.68940403 268.46695619 28.68854625 260.71803071 28.6937902 C254.41779717 28.69783599 248.11758756 28.69638349 241.81735516 28.69104195 C240.91975811 28.69029352 240.02216107 28.6895451 239.09736412 28.688774 C237.27373596 28.68724248 235.45010781 28.68570413 233.62647967 28.68415903 C216.53472261 28.67043924 199.44301135 28.67586795 182.35125534 28.68734425 C166.72638546 28.6972754 151.10163401 28.68433706 135.4767824 28.66041005 C119.42008583 28.63600764 103.36344441 28.62641403 87.30672967 28.63306278 C78.29735042 28.63655255 69.28806222 28.63433898 60.27869701 28.61681175 C52.60900963 28.60207547 44.93947744 28.60147292 37.26979305 28.61888266 C33.35950604 28.62738345 29.44949609 28.62956501 25.53922367 28.61423111 C21.95394022 28.60034613 18.3691702 28.60519531 14.78391616 28.62447035 C12.88469504 28.62998392 10.98544753 28.61599057 9.08627665 28.60111624 C-5.51496745 28.72589333 -18.53283443 34.6282811 -27.79792118 46.13142776 Z " fill="#034C84" transform="translate(350.7979211807251,152.86857223510742)"/>
<path d="M0 0 C5.50699774 2.59152835 8.5028959 6.57777803 11 12 C11.67269447 15.28678242 11.69229616 18.46545176 11.65942383 21.8125 C11.66990753 22.75976456 11.68039124 23.70702911 11.69119263 24.68299866 C11.71980933 27.78900447 11.71366667 30.89388669 11.70703125 34 C11.72015435 36.1633442 11.73546044 38.32667615 11.75285339 40.48999023 C11.79264426 46.16500332 11.80289009 51.83969542 11.80688477 57.51483154 C11.81622726 63.31337179 11.85364789 69.11172432 11.88867188 74.91015625 C11.9531877 86.27342878 11.9864771 97.63656034 12 109 C12.90766113 108.07662842 13.81532227 107.15325684 14.75048828 106.2019043 C18.13096075 102.7669921 21.52146631 99.34213211 24.91503906 95.92016602 C26.38034726 94.43980328 27.84294757 92.95675494 29.30273438 91.47094727 C31.40563259 89.3315205 33.5181897 87.20204992 35.6328125 85.07421875 C36.27993195 84.41161545 36.92705139 83.74901215 37.59378052 83.06632996 C41.95303956 78.70547821 46.4731737 74.57609755 53 74.5625 C57.26543541 74.74972331 59.74624072 76.18993516 63 79 C66.66876436 83.15149651 67.45377592 86.31053866 67.53125 91.65625 C66.21258544 97.47388775 61.51524186 101.7793966 57.40869141 105.8659668 C56.86179153 106.4179776 56.31489166 106.9699884 55.75141907 107.53872681 C53.95657078 109.34738464 52.15448255 111.14860949 50.3515625 112.94921875 C49.09347996 114.21119206 47.83562009 115.47338738 46.57797241 116.73579407 C43.94697592 119.37423352 41.31216209 122.0087886 38.67480469 124.64086914 C35.30158194 128.0082902 31.93987941 131.38695735 28.58117104 134.76884747 C25.98869517 137.37607609 23.38930302 139.97632256 20.78788376 142.57462502 C19.54563611 143.81738478 18.305739 145.06249889 17.0682869 146.3100338 C15.33599197 148.05470973 13.59436364 149.78951999 11.85009766 151.5222168 C11.3449614 152.0349968 10.83982513 152.54777679 10.31938171 153.07609558 C5.45051411 157.87411981 1.11721023 160.27652197 -5.77734375 160.49609375 C-11.98167063 159.11129671 -16.65925058 154.77873696 -20.99536133 150.37695312 C-21.54912445 149.82684067 -22.10288757 149.27672821 -22.6734314 148.70994568 C-24.48374843 146.90766954 -26.28307247 145.09485796 -28.08203125 143.28125 C-29.34467804 142.01808401 -30.60784464 140.75543742 -31.87150574 139.49328613 C-34.50950518 136.85519727 -37.14228659 134.21204414 -39.77124023 131.56494141 C-43.13983136 128.17360607 -46.51944636 124.79351785 -49.90279102 121.41690826 C-52.50854312 118.81449727 -55.10928274 116.20712467 -57.70844078 113.59812927 C-58.95304851 112.3496761 -60.19900304 111.10256407 -61.44632912 109.85682678 C-63.18641322 108.11711367 -64.91985431 106.37104401 -66.65161133 104.62304688 C-67.16641556 104.11072006 -67.68121979 103.59839325 -68.21162415 103.07054138 C-72.40697349 98.81225106 -74.297486 95.73418721 -74.5625 89.75 C-74.49414687 84.08428474 -72.63773798 81.40430372 -68.7265625 77.4609375 C-66.05835976 75.20322749 -64.24289951 74.79968174 -60.8125 74.6875 C-59.70841797 74.63142578 -59.70841797 74.63142578 -58.58203125 74.57421875 C-51.48787762 75.74405649 -46.56220936 81.02475586 -41.75390625 85.953125 C-41.09792953 86.61334656 -40.44195282 87.27356812 -39.76609802 87.95379639 C-37.69102581 90.04554075 -35.62668337 92.14751518 -33.5625 94.25 C-32.14978692 95.67777468 -30.73638212 97.10486529 -29.32226562 98.53125 C-25.87345994 102.01297276 -22.43423214 105.50390409 -19 109 C-18.99635437 107.77304413 -18.99270874 106.54608826 -18.98895264 105.2819519 C-18.95200499 93.71677211 -18.89423454 82.15185864 -18.81609726 70.58688164 C-18.776595 64.64124322 -18.74441984 58.69575353 -18.72900391 52.75 C-18.71385568 47.01156381 -18.6794421 41.27353641 -18.63169098 35.53528214 C-18.61685837 33.34648314 -18.60895791 31.15762579 -18.60811615 28.9687767 C-18.60575048 25.90175589 -18.57870187 22.83586843 -18.54589844 19.76904297 C-18.55344398 18.41281578 -18.55344398 18.41281578 -18.56114197 17.02919006 C-18.47019848 11.53021937 -17.66998444 8.35688189 -14 4 C-9.50616014 0.11895649 -5.77059237 -1.11017408 0 0 Z " fill="#034C84" transform="translate(516,476)"/>
<path d="M0 0 C8.79661316 5.25234669 14.66749356 12.91826657 17.53125 22.75390625 C19.46930976 32.04044261 17.2471786 40.7865817 12.25 48.75 C6.63181362 56.53853711 0.43070428 60.7854019 -9 63 C-19.00823983 64.26719316 -26.97706038 61.9374722 -35.25 56.3125 C-42.93129306 50.12091226 -46.95997644 41.61239468 -48.28125 31.94140625 C-48.72949254 22.65905041 -44.91127064 13.98360999 -39 7 C-28.26241138 -3.36812321 -13.66752442 -6.21452162 0 0 Z " fill="#034C84" transform="translate(631,265)"/>
<path d="M0 0 C6.40921549 4.60125626 11.34056373 9.50100818 14 17 C14.4125 18.134375 14.825 19.26875 15.25 20.4375 C17.25886946 29.97962993 15.65925376 38.70568092 10.8125 47.1875 C5.37197854 55.1787704 -1.56636133 59.87144869 -11 62 C-21.01352571 63.2565485 -28.97120102 60.94145613 -37.25 55.3125 C-43.18832082 50.56424753 -47.04083928 44.31123161 -49 37 C-49.78966229 28.13925455 -49.94832184 19.71628937 -45 12 C-44.5875 11.30519531 -44.175 10.61039062 -43.75 9.89453125 C-39.3395883 3.21626581 -33.19607021 0.00681619 -26.125 -3.375 C-16.9695907 -5.20608186 -8.25943586 -4.49747383 0 0 Z " fill="#034C84" transform="translate(529,266)"/>
<path d="M0 0 C8.96762142 5.38347499 14.92097826 12.38716712 18.015625 22.39453125 C19.70700311 31.11673603 18.64626527 39.64645138 14.4140625 47.44921875 C8.67461215 55.63173453 1.37594233 61.4947928 -8.5859375 63.44921875 C-18.60874945 64.50584049 -27.1790573 62.7003682 -35.19921875 56.39453125 C-41.73854402 50.20839376 -46.12289577 43.47635208 -46.82421875 34.34765625 C-47.04828774 23.71027577 -45.12071323 15.66858223 -38.421875 7.26953125 C-28.3648712 -2.70188103 -12.95959821 -6.01544868 0 0 Z " fill="#034C84" transform="translate(422.5859375,264.55078125)"/>
<path d="M0 0 C0.66 0.99 1.32 1.98 2 3 C1.4225 3.474375 0.845 3.94875 0.25 4.4375 C-3.77787013 9.02479654 -6.21739529 14.93481351 -7 21 C-7.66 21 -8.32 21 -9 21 C-7.80634622 13.71871194 -5.38717745 5.38717745 0 0 Z " fill="#061F5B" transform="translate(300,182)"/>
<path d="M0 0 C1 2 1 2 0.328125 4.3125 C-0.02765625 5.199375 -0.3834375 6.08625 -0.75 7 C-1.09546875 7.886875 -1.4409375 8.77375 -1.796875 9.6875 C-3 12 -3 12 -6 14 C-5.57202798 8.29370646 -3.15654048 4.58921384 0 0 Z " fill="#052A65" transform="translate(221,659)"/>
<path d="M0 0 C0.33 0.66 0.66 1.32 1 2 C0.03685937 4.01800895 -0.96958573 6.01549844 -2 8 C-2.33 9.093125 -2.66 10.18625 -3 11.3125 C-3.33 12.199375 -3.66 13.08625 -4 14 C-4.99 14.33 -5.98 14.66 -7 15 C-5.45454854 9.52067211 -2.84456788 4.88570819 0 0 Z " fill="#07245F" transform="translate(608,687)"/>
<path d="M0 0 C0 3 0 3 -1.35546875 4.75390625 C-7.43407488 10.75474769 -7.43407488 10.75474769 -12 12 C-11.67 10.68 -11.34 9.36 -11 8 C-10.41734375 7.90847656 -9.8346875 7.81695312 -9.234375 7.72265625 C-6.46816153 6.82798931 -5.23626036 5.53835231 -3.25 3.4375 C-2.63640625 2.79683594 -2.0228125 2.15617187 -1.390625 1.49609375 C-0.93171875 1.00238281 -0.4728125 0.50867188 0 0 Z " fill="#031E5D" transform="translate(719,409)"/>
<path d="M0 0 C0.33 0.66 0.66 1.32 1 2 C-2.33333333 5.33333333 -5.66666667 8.66666667 -9 12 C-7.18690951 6.71181939 -4.67111564 3.11407709 0 0 Z " fill="#0D2C63" transform="translate(389,268)"/>
<path d="M0 0 C0.33 0.66 0.66 1.32 1 2 C0.0520411 4.02518491 -0.95191959 6.02477154 -2 8 C-2.33 8.99 -2.66 9.98 -3 11 C-5.0625 12.1875 -5.0625 12.1875 -7 13 C-5.35821735 8.22390502 -2.73453298 4.20617096 0 0 Z " fill="#0B265E" transform="translate(260,596)"/>
<path d="M0 0 C0.66 0.33 1.32 0.66 2 1 C-0.22370557 4.51111406 -2.08371489 5.69457163 -6 7 C-6.99 7.495 -6.99 7.495 -8 8 C-6.49776416 3.79373966 -3.71449966 2.26099979 0 0 Z " fill="#0B2963" transform="translate(496,266)"/>
<path d="M0 0 C0.33 0.66 0.66 1.32 1 2 C-0.25 5.5625 -0.25 5.5625 -2 9 C-2.99 9.33 -3.98 9.66 -5 10 C-3.66511872 6.40608886 -2.03977277 3.24509304 0 0 Z " fill="#072862" transform="translate(244,622)"/>
<path d="M0 0 C1.26706235 3.80118706 0.57172296 5.3850372 -1 9 C-1.99 9.33 -2.98 9.66 -4 10 C-2.66666667 6.66666667 -1.33333333 3.33333333 0 0 Z " fill="#072763" transform="translate(780,804)"/>
</svg>
